<svg xmlns="http://www.w3.org/2000/svg" viewBox="0 0 645.53 430.75"><defs><style>.cls-1{fill:#d2e2d0;}.cls-2{fill:#3e6857;}.cls-3{fill:#173449;}.cls-4{fill:#448453;}.cls-5{fill:#f99e82;}.cls-6{fill:#fff;}.cls-7{fill:#7fbccc;}.cls-8{fill:#e07832;}.cls-9{fill:#938557;}.cls-10{fill:#ffbf73;}.cls-11{fill:#f47471;}.cls-12{fill:#359490;}.cls-13{fill:#f4e6cb;}.cls-14{fill:#d8c3a0;}.cls-15{fill:none;stroke:#173449;stroke-linecap:round;stroke-miterlimit:10;stroke-width:2px;}</style></defs><g id="OBJECTS"><path class="cls-1" d="M467.88,118.08c.88-9-14-16.52-34.1-16.6-7,0-19.37.77-24.33,5.74.69-20.74-21.84-37.43-42.38-34.48s-36.56,21.4-41.2,41.64c-2.55-10.73-13.12-19-24.15-18.81s-21.36,8.7-23.6,19.49c-4.57-12.22-25.75-12-30.09.28-5.64-9.82-22.18-10.3-28.38-.82C213.55,99.33,197.37,88.8,181,89.37s-31.77,12.19-36.81,27.77c-9.21-16.21-36.79-16.45-46.3-.42Z" transform="translate(-50.25 -36.11)"/><path class="cls-1" d="M568.51,59.67c.46-4.64-7.2-8.53-17.58-8.56-3.63,0-10,.39-12.55,3,.35-10.7-11.27-19.31-21.86-17.79s-18.86,11-21.25,21.48a12.62,12.62,0,0,0-24.63.35c-2.36-6.3-13.28-6.2-15.52.15-2.91-5.07-11.44-5.32-14.64-.43a20.71,20.71,0,0,0-38.92,1.35c-4.75-8.36-19-8.49-23.88-.21Z" transform="translate(-50.25 -36.11)"/><path class="cls-1" d="M627,155.38c-3.46-10.76-8.41-23-19.26-26.18a17.89,17.89,0,0,0-19.47,7.24C587.18,124.22,571.81,117.53,560,121s-20.22,13.63-27.3,23.66c-3.12-11.23-16-18.06-27.51-16.27s-21.08,10.75-25.77,21.42a10.57,10.57,0,0,0-9.54-9.45c-4.87-.31-8.86,7.33-9.83,12.12Z" transform="translate(-50.25 -36.11)"/><path class="cls-1" d="M330.4,80.74c-2.61-8.1-6.33-17.32-14.5-19.71a13.47,13.47,0,0,0-14.65,5.46c-.84-9.21-12.41-14.23-21.28-11.62s-15.22,10.26-20.55,17.81c-2.35-8.45-12-13.59-20.71-12.25s-15.87,8.1-19.4,16.13a7.93,7.93,0,0,0-7.18-7.11c-3.67-.24-6.67,5.52-7.4,9.12Z" transform="translate(-50.25 -36.11)"/><polygon class="cls-2" points="123.56 134.98 98.87 210.78 120.79 228.28 102.28 224.21 118.05 239.38 92.14 231.44 63.81 318.44 89.26 331.11 58.22 335.59 27.72 429.23 219.39 429.23 123.56 134.98"/><polygon class="cls-2" points="223 148.75 197.56 134.98 220.73 137.94 197.56 27.34 184.96 87.5 194.06 84.92 185.57 92.38 192.96 95.46 180.95 106.62 180.95 106.62 192.96 103.43 178.34 119.08 113.36 429.23 281.76 429.23 223 148.75"/><polygon class="cls-2" points="344.23 141.94 328.51 143 339.6 129.69 330.5 128.3 336.39 120.84 321.95 81.97 192.96 429.23 450.94 429.23 344.23 141.94"/><polygon class="cls-2" points="482.17 135.15 467.67 134.98 480.13 128.36 454.97 44.41 443.17 83.77 453.99 93.66 440.2 93.66 440.1 94 457.99 111.8 433.54 115.9 339.6 429.23 570.33 429.23 482.17 135.15"/><polygon class="cls-2" points="604.11 370.87 549.24 335.77 595.1 343.19 565.58 252.54 565.58 252.54 547.01 239.38 559.25 233.13 559.25 233.13 538.27 215.73 554.18 217.55 527.29 134.98 431.46 429.23 623.12 429.23 604.11 370.87"/><path class="cls-3" d="M161.54,239.68q5.91-10.77,12.65-21.06c.16-.24-.23-.46-.38-.22q-6.74,10.28-12.66,21c-.14.26.25.48.39.23Z" transform="translate(-50.25 -36.11)"/><path class="cls-3" d="M169.28,234.9a16.89,16.89,0,0,1,4.49-7.64.22.22,0,0,0-.31-.31,17.27,17.27,0,0,0-4.61,7.83.22.22,0,0,0,.43.12Z" transform="translate(-50.25 -36.11)"/><path class="cls-3" d="M227.46,330.68a428.59,428.59,0,0,1-21.52-62.43.22.22,0,0,0-.43.12,430.11,430.11,0,0,0,21.56,62.54c.12.26.5,0,.39-.23Z" transform="translate(-50.25 -36.11)"/><path class="cls-3" d="M226.65,330.48q-6.35,1.74-12.76,3.22a.22.22,0,0,0-.1.37,81.39,81.39,0,0,0,8.68,9c.21.2.53-.12.32-.31a83.17,83.17,0,0,1-8.68-9l-.1.37q6.41-1.47,12.76-3.22a.22.22,0,0,0-.12-.43Z" transform="translate(-50.25 -36.11)"/><path class="cls-3" d="M135.11,339.25q9.45-16.86,17.53-34.43c.12-.26-.26-.49-.38-.23q-8.08,17.57-17.53,34.43a.22.22,0,0,0,.38.23Z" transform="translate(-50.25 -36.11)"/><path class="cls-3" d="M151.42,319.9a31.69,31.69,0,0,1,5.33-10.24c.18-.22-.14-.54-.31-.32A32.27,32.27,0,0,0,151,319.78c-.09.28.35.39.43.12Z" transform="translate(-50.25 -36.11)"/><path class="cls-3" d="M214.5,316.92,189.87,281c-.16-.23-.55,0-.38.23l24.62,35.9c.16.24.55,0,.39-.23Z" transform="translate(-50.25 -36.11)"/><path class="cls-3" d="M199.34,302.58a90.75,90.75,0,0,1-9-15.73c-.12-.26-.51,0-.39.23a90.75,90.75,0,0,0,9,15.73c.17.23.56,0,.39-.23Z" transform="translate(-50.25 -36.11)"/><path class="cls-3" d="M259.28,157.23,253.46,134c-.07-.28-.51-.16-.44.12l5.82,23.22c.07.28.51.16.44-.12Z" transform="translate(-50.25 -36.11)"/><path class="cls-3" d="M252.79,152.51l-2-8.93c-.06-.28-.5-.16-.43.12l2,8.93c.06.28.49.16.43-.12Z" transform="translate(-50.25 -36.11)"/><path class="cls-3" d="M346.8,292.56l12.4-25.34c.13-.26-.26-.49-.39-.23l-12.39,25.34c-.13.26.26.49.38.23Z" transform="translate(-50.25 -36.11)"/><path class="cls-3" d="M355.61,284.28l4.8-10.28c.13-.26-.26-.49-.38-.23l-4.8,10.28c-.13.26.26.49.38.23Z" transform="translate(-50.25 -36.11)"/><path class="cls-3" d="M401.34,372a312.24,312.24,0,0,0-14.14-37.17c-.12-.26-.51,0-.39.23a310.92,310.92,0,0,1,14.1,37.05c.08.28.52.16.43-.11Z" transform="translate(-50.25 -36.11)"/><path class="cls-3" d="M396.8,343.69a117.8,117.8,0,0,1-8.36-20.46c-.08-.27-.52-.15-.43.12a118.26,118.26,0,0,0,8.4,20.57c.13.26.52,0,.39-.23Z" transform="translate(-50.25 -36.11)"/><path class="cls-3" d="M489.3,181.46l9.15-19.09c.12-.25-.27-.48-.39-.22l-9.15,19.08c-.12.26.26.49.39.23Z" transform="translate(-50.25 -36.11)"/><path class="cls-3" d="M488,173.89l2.79-8.21c.09-.28-.34-.4-.43-.12l-2.79,8.21c-.1.27.34.39.43.12Z" transform="translate(-50.25 -36.11)"/><path class="cls-3" d="M552.66,240.37l20.55,58.17.33-.25L561,289.76c-.2-.13-.4.12-.31.31q15.21,29.76,32.84,58.18a.23.23,0,0,0,.39-.23Q576.25,319.63,561,289.84l-.31.31,12.59,8.53a.23.23,0,0,0,.33-.26L553.1,240.25c-.1-.27-.53-.16-.44.12Z" transform="translate(-50.25 -36.11)"/><path class="cls-3" d="M556.23,271.18l-12.1-23.43c-.13-.26-.52,0-.39.23l12.11,23.43c.13.25.52,0,.38-.23Z" transform="translate(-50.25 -36.11)"/><path class="cls-3" d="M545.4,260.87l-3.26-9c-.1-.27-.53-.16-.43.12l3.25,9c.1.27.53.15.44-.12Z" transform="translate(-50.25 -36.11)"/><path class="cls-3" d="M619.88,320.87a83.21,83.21,0,0,1-9.72-19c-.1-.27-.53-.16-.43.11a83.57,83.57,0,0,0,9.76,19.1c.16.23.55,0,.39-.23Z" transform="translate(-50.25 -36.11)"/><path class="cls-3" d="M609.87,312.91l-5.39-11c-.12-.26-.51,0-.38.23l5.38,11c.13.25.51,0,.39-.23Z" transform="translate(-50.25 -36.11)"/><path class="cls-3" d="M571.5,228l4.11-16.45a.22.22,0,0,0-.43-.12l-4.11,16.45a.22.22,0,0,0,.43.12Z" transform="translate(-50.25 -36.11)"/><path class="cls-3" d="M572.08,212.91l2.81-6.14c.12-.26-.27-.48-.39-.22l-2.81,6.14c-.12.26.27.49.39.22Z" transform="translate(-50.25 -36.11)"/><path class="cls-3" d="M467.46,465.64a79.92,79.92,0,0,1-4.27-39.06c3.23-21.32,10.95-31.33,17.95-36.76s14.94-8.44,24.72-7.53,15.06,6.43,15.06,6.43-3.63-15.86,8.69-26.87a26.91,26.91,0,0,1,25.81-6.16s8.34,2.29,13.36,7.43c0,0-.9-21.76,22.32-30.51,0,0,20.52-7.83,41.62,7.9l12.63,38.79-45.54-7.22L654.36,407l19,58.37Z" transform="translate(-50.25 -36.11)"/><path class="cls-3" d="M161.58,411.52a41.68,41.68,0,0,1,6.53-22.29c7-10.88,16-14.25,21.82-14.91s14.23,0,21.11,7.34c0,0,6.58-16.08,24.25-20.28S263.91,371,263.91,371l17.81,1.26s9.32-5.66,19.4-4.83,15.58,4.42,16.95,6.16,14.79,15.17,13.52,29a25.81,25.81,0,0,1,17.13,1.91c9.21,4.32,13.83,13.23,15.19,17.66A56,56,0,0,1,366,448c-1.8,12.85-3.9,17.32-3.9,17.32H159.22Z" transform="translate(-50.25 -36.11)"/><path class="cls-4" d="M94.94,465.34s.25-14.61,3.7-22,7.54-10.12,13.69-11.7,11,2.74,12.36,4.2l.22-.25s2.79-20.11,12.72-27.56,16-4.47,19.5-3,9,6.89,9.68,12.23c0,0,3.15-5.23,10.78-2.25s10.55,11.12,10.55,11.12,1.73,5.66,1.35,8.36c0,0,5.57-2.89,9.81-.95s9.36,4.12,12.45,13,1.11,18.84,1.11,18.84Z" transform="translate(-50.25 -36.11)"/><path class="cls-4" d="M527.6,465.93s-4.83-14.48-2.19-24.52,6.86-16.75,15.81-21.17,15.85-2.17,19-.53,11.62,7.32,14.22,10.65c0,0,4-13.1,18.07-17.56s22.94,6.37,22.94,6.37,5.33,4.65,5.14,14.13l6.25-1s12-.75,19.53,8.87,4.31,20.53,2.64,24.16Z" transform="translate(-50.25 -36.11)"/><path class="cls-3" d="M95.85,464.35c.42-9.24,1-19.52,7.57-26.71,5.32-5.78,15.29-7.81,20.76-1a.92.92,0,0,0,1.52-.4c2.22-11.14,5.19-24,16-29.92a16.18,16.18,0,0,1,15-.5,16.9,16.9,0,0,1,9.23,11.67c.17.86,1.23.77,1.65.22,3.44-4.47,10.46-2.45,14.08.64a20.28,20.28,0,0,1,6.91,16.13.91.91,0,0,0,1.36.78c6.35-3.59,14.28.17,18.16,5.7,4.82,6.88,4.57,16.07,4.2,24.08-.05,1.17,1.76,1.16,1.82,0,.4-8.86.51-19.13-5.49-26.35-4.63-5.56-12.92-8.77-19.6-5l1.36.78c.26-7-2.92-14.37-8.76-18.45-4.63-3.22-11.81-4.16-15.6.77l1.66.21a18.8,18.8,0,0,0-17.79-14.65c-9.54-.09-17.14,7.6-20.88,15.73-2.58,5.6-3.87,11.66-5.07,17.67l1.51-.4c-5.61-7-16.12-5.73-22.17-.12-8,7.42-8.79,18.92-9.25,29.14-.06,1.17,1.75,1.16,1.81,0Z" transform="translate(-50.25 -36.11)"/><path class="cls-3" d="M158.29,465.46a522.15,522.15,0,0,0-14-57c-.1-.32-.61-.18-.51.14a519.86,519.86,0,0,1,14,57c.07.33.57.19.51-.14Z" transform="translate(-50.25 -36.11)"/><path class="cls-3" d="M152.44,436.17l1.74-21.58c0-.34-.49-.34-.52,0l-1.74,21.58c0,.33.5.33.52,0Z" transform="translate(-50.25 -36.11)"/><path class="cls-3" d="M155.4,452.15l-13.49-8a.27.27,0,0,0-.27.46l13.49,8a.27.27,0,0,0,.27-.46Z" transform="translate(-50.25 -36.11)"/><path class="cls-3" d="M183.1,465.12a197.64,197.64,0,0,1,17-26.23c.21-.27-.24-.53-.45-.26a197.64,197.64,0,0,0-16.95,26.23c-.16.29.29.56.45.26Z" transform="translate(-50.25 -36.11)"/><path class="cls-3" d="M191.89,449.64a51.26,51.26,0,0,1,2.55-8.75c.12-.31-.38-.45-.5-.14a51.26,51.26,0,0,0-2.55,8.75c-.07.33.44.47.5.14Z" transform="translate(-50.25 -36.11)"/><path class="cls-3" d="M126.42,466.46q-7.36-12.88-14.09-26.12c-.15-.3-.6,0-.45.26q6.72,13.25,14.09,26.13a.26.26,0,0,0,.45-.27Z" transform="translate(-50.25 -36.11)"/><path class="cls-3" d="M118.72,452.44a66.89,66.89,0,0,0-7.76-5,.26.26,0,0,0-.27.45,68.35,68.35,0,0,1,7.77,5c.27.2.53-.25.26-.45Z" transform="translate(-50.25 -36.11)"/><path class="cls-3" d="M162.45,407.72c1.81-11.56,7.43-23.53,18-29.42,9.43-5.24,22.61-4.47,29.92,4a.91.91,0,0,0,1.42-.19,35.88,35.88,0,0,1,20.83-19.06,28.53,28.53,0,0,1,26.76,4.83,25.12,25.12,0,0,1,8.6,12.77.91.91,0,0,0,1.75-.48c-2.68-9.56-10.84-16.74-20.28-19.35-9.94-2.75-20.38.19-28.33,6.5a38.34,38.34,0,0,0-10.89,13.88l1.42-.18c-5.87-6.8-15.36-8.95-24-7.26-9.6,1.89-17.17,8.85-21.72,17.29a50.51,50.51,0,0,0-5.3,16.19c-.18,1.14,1.56,1.63,1.74.48Z" transform="translate(-50.25 -36.11)"/><path class="cls-3" d="M269.84,383.08c7.57-8.9,19-14.94,30.8-14.75a29.56,29.56,0,0,1,26.26,17,24.65,24.65,0,0,1,1.51,17.79c-.19.61.46,1.37,1.11,1.11,9.84-3.91,21.11.17,27.73,8,7.43,8.84,9.29,20.95,8.26,32.13A115.46,115.46,0,0,1,361,465.69a.91.91,0,0,0,1.75.48c3.59-12.51,6.52-25.79,3.61-38.75-2.43-10.83-9.06-20.73-19.71-24.78A24.43,24.43,0,0,0,329,402.5l1.12,1.12c3.41-11.06-1.63-23.09-10.36-30.22-9.66-7.88-22.86-8.56-34.17-4a44.45,44.45,0,0,0-17.07,12.37c-.75.89.52,2.17,1.28,1.28Z" transform="translate(-50.25 -36.11)"/><path class="cls-3" d="M647.29,462.92l-.68.68a.26.26,0,0,0,0,.37.27.27,0,0,0,.37,0l.68-.68a.26.26,0,0,0-.37-.37Z" transform="translate(-50.25 -36.11)"/><path class="cls-3" d="M528.1,464.52c-3.49-10.92-4-23.81,2.49-33.77,5.66-8.71,16.82-14.4,27.1-11,6.33,2.06,11.35,6.81,16.1,11.29a.92.92,0,0,0,1.51-.4c3.86-10,13.75-18.38,24.89-18,10.58.4,20.4,10.08,19.35,20.91a.91.91,0,0,0,1.14.88,22.07,22.07,0,0,1,27.78,29.43c-.44,1.08,1.31,1.55,1.75.48a23.87,23.87,0,0,0-30-31.66l1.15.87c.89-9.11-5.39-17.46-13.54-21-8.61-3.7-18.27-1.1-25.24,4.76a31.31,31.31,0,0,0-9,12.78l1.52-.4c-4.52-4.27-9.22-8.63-15-11.06a22.81,22.81,0,0,0-16.13-.5c-11.17,3.77-18.25,14.06-19.79,25.48A49,49,0,0,0,526.35,465c.36,1.11,2.11.63,1.75-.48Z" transform="translate(-50.25 -36.11)"/><path class="cls-3" d="M563.87,464.49A175.72,175.72,0,0,0,548,434c-.18-.28-.63,0-.45.26a175.4,175.4,0,0,1,15.84,30.42c.13.31.63.18.51-.14Z" transform="translate(-50.25 -36.11)"/><path class="cls-3" d="M556.42,447.56l-6.95-1.64c-.33-.08-.47.43-.14.51l7,1.63c.32.08.46-.43.13-.5Z" transform="translate(-50.25 -36.11)"/><path class="cls-3" d="M561.16,454.89,567,446.2c.19-.28-.26-.54-.45-.26l-5.82,8.69c-.18.28.27.54.46.26Z" transform="translate(-50.25 -36.11)"/><path class="cls-3" d="M594,466q5.35-21.57,12.22-42.73c.1-.32-.4-.46-.51-.14q-6.85,21.15-12.21,42.74a.26.26,0,0,0,.5.13Z" transform="translate(-50.25 -36.11)"/><path class="cls-3" d="M599.64,441.11l-1.23-6.88c-.06-.33-.56-.19-.5.14l1.22,6.88c.06.33.57.19.51-.14Z" transform="translate(-50.25 -36.11)"/><path class="cls-3" d="M598.19,455l7.58-4c.3-.15,0-.61-.26-.45l-7.59,4c-.3.16,0,.61.27.45Z" transform="translate(-50.25 -36.11)"/><path class="cls-3" d="M623.72,464.61l14.91-21.37c.19-.28-.26-.54-.45-.27l-14.91,21.38c-.19.27.26.54.45.26Z" transform="translate(-50.25 -36.11)"/><path class="cls-3" d="M630.55,454.82l-2.65-11a.26.26,0,0,0-.51.13L630,455a.26.26,0,0,0,.51-.13Z" transform="translate(-50.25 -36.11)"/><path class="cls-3" d="M632.86,339.61c-9.68-7.15-22-11.21-34.05-9.72a36.09,36.09,0,0,0-26.26,16.66,30.33,30.33,0,0,0-4.67,16.85l1.55-.64a30.06,30.06,0,0,0-27.12-8.34c-9.81,1.9-17.58,9.19-21,18.45a29,29,0,0,0-1.15,16.47l1.51-.88c-11.08-10.51-29.06-8.82-40.48.18-13.45,10.61-19.06,29-19.45,45.51a82.75,82.75,0,0,0,6,31.73c.42,1.08,2.17.61,1.75-.48-6.41-16.62-8-34.65-2.5-51.78,4.63-14.43,15-27.83,30.74-30.25,8.07-1.24,16.66.66,22.68,6.37a.91.91,0,0,0,1.51-.88,28.2,28.2,0,0,1,7.37-25.38,26.74,26.74,0,0,1,25.35-7.05A27.32,27.32,0,0,1,568.15,364a.92.92,0,0,0,1.55-.64c-.31-10.31,5.41-19.93,13.72-25.77,9.12-6.41,20.72-7.57,31.34-4.79a50.58,50.58,0,0,1,17.18,8.33c.94.69,1.85-.88.92-1.56Z" transform="translate(-50.25 -36.11)"/><path class="cls-4" d="M543.52,383.39l.89-.68c2.63-6.74-.49-14.52-5.32-19.91a35.07,35.07,0,0,0-22.82-11.38c-1.81,9.71,3.12,19.71,10.39,26.39C531.24,382,537.61,385.31,543.52,383.39Z" transform="translate(-50.25 -36.11)"/><path class="cls-3" d="M544,384.17a6.08,6.08,0,0,0,1.07-.82,6.59,6.59,0,0,0,.91-2.73,17.17,17.17,0,0,0,0-6.23,25,25,0,0,0-5.77-11.67,36,36,0,0,0-24-12.21.93.93,0,0,0-.88.67c-1.44,8.3,1.54,16.52,6.68,23,5,6.28,13.22,12.61,21.69,10.07a.9.9,0,0,0-.48-1.74c-7.86,2.35-15.49-3.91-20-9.72s-7.45-13.57-6.13-21.14l-.87.66a34.36,34.36,0,0,1,21.66,10.56,24.53,24.53,0,0,1,6,10.32,16.4,16.4,0,0,1,.51,5.75,8.85,8.85,0,0,1-.68,3.06c.08-.16.08,0-.1.18a4.69,4.69,0,0,1-.55.42C542.15,383.3,543.05,384.88,544,384.17Z" transform="translate(-50.25 -36.11)"/><path class="cls-4" d="M521.31,429.9l.55-.77c.45-6.11-4-11.64-9.26-14.8a29.66,29.66,0,0,0-21.3-3.54c.95,8.3,7.43,15.18,15,18.78C511,431.83,517,432.92,521.31,429.9Z" transform="translate(-50.25 -36.11)"/><path class="cls-3" d="M522.09,430.35c1.62-2.26.32-5.93-.79-8.21a21,21,0,0,0-7.26-8,30.59,30.59,0,0,0-23-4.26.92.92,0,0,0-.66.88c.89,7,5.23,12.92,11,16.95s14.07,7.16,20.42,2.94c1-.64.06-2.21-.92-1.57-5.8,3.86-13.48.65-18.59-2.94s-9.25-9-10.05-15.38l-.67.87a28.91,28.91,0,0,1,20.61,3.45,20.22,20.22,0,0,1,6.81,6.55c1.17,1.89,3,5.75,1.57,7.78C519.85,430.39,521.42,431.29,522.09,430.35Z" transform="translate(-50.25 -36.11)"/><path class="cls-4" d="M570.26,416.18l.69.35c5-.36,8.88-4.61,10.79-9.21a24.09,24.09,0,0,0,.31-17.56c-6.57,1.76-11.32,7.79-13.32,14.29C567.48,408.14,567.32,413.08,570.26,416.18Z" transform="translate(-50.25 -36.11)"/><path class="cls-3" d="M569.81,417a3.46,3.46,0,0,0,2.72.25,11.48,11.48,0,0,0,3.89-1.7A17,17,0,0,0,582,409a24.94,24.94,0,0,0,1-19.52.92.92,0,0,0-1.11-.63c-5.79,1.63-10.2,6.2-12.67,11.57-2.32,5.05-3.6,11.84.48,16.36.79.87,2.06-.42,1.28-1.28-3.65-4-2-10.52.15-14.88,2.32-4.65,6.15-8.59,11.24-10l-1.11-.64a23.42,23.42,0,0,1-.37,17.23,16.65,16.65,0,0,1-4.25,5.91,10.73,10.73,0,0,1-3.4,2,6.18,6.18,0,0,1-1.68.42c-.15,0-.12.08-.32.06a2.67,2.67,0,0,1-.44-.23C569.69,414.87,568.77,416.43,569.81,417Z" transform="translate(-50.25 -36.11)"/><path class="cls-4" d="M233.82,376l.94-.17c4.61-4.14,5.23-11.29,3.61-17.27A30,30,0,0,0,225.31,341c-5.12,6.72-5.2,16.27-2.22,24.18C225,370.18,228.57,375.15,233.82,376Z" transform="translate(-50.25 -36.11)"/><path class="cls-3" d="M234.06,376.84c2.78-.52,4.41-4.11,5.19-6.58a21.47,21.47,0,0,0,.18-11.25,30.94,30.94,0,0,0-13.66-18.76.93.93,0,0,0-1.24.32c-4.49,6.08-5.19,14.05-3.44,21.25,1.56,6.38,5.42,13.74,12.49,15,1.14.2,1.63-1.54.48-1.75-6.64-1.2-10-8.33-11.34-14.28-1.5-6.62-.73-13.77,3.38-19.32l-1.24.32a29.3,29.3,0,0,1,12.49,16.44,20.8,20.8,0,0,1,.58,9.85c-.45,2.25-1.79,6.52-4.35,7C232.44,375.3,232.92,377.05,234.06,376.84Z" transform="translate(-50.25 -36.11)"/><path class="cls-4" d="M202.18,416.43l.84-.16c4.1-3.69,4.65-10.06,3.21-15.38A26.71,26.71,0,0,0,194.6,385.3c-4.56,6-4.64,14.5-2,21.54C194.29,411.27,197.5,415.7,202.18,416.43Z" transform="translate(-50.25 -36.11)"/><path class="cls-3" d="M202.42,417.3c2.51-.47,4-3.7,4.69-5.92a19.15,19.15,0,0,0,.16-10.08,27.67,27.67,0,0,0-12.21-16.78.93.93,0,0,0-1.24.33c-4,5.44-4.64,12.57-3.07,19,1.39,5.71,4.86,12.31,11.19,13.45,1.14.2,1.63-1.54.48-1.75-5.88-1.06-8.85-7.38-10-12.65-1.32-5.87-.64-12.21,3-17.14l-1.24.33a25.93,25.93,0,0,1,11.08,14.58,18.41,18.41,0,0,1,.52,8.72c-.4,2-1.58,5.75-3.81,6.16C200.8,415.76,201.28,417.51,202.42,417.3Z" transform="translate(-50.25 -36.11)"/><path class="cls-4" d="M222.38,438.82l.7.48c5.51.29,10.4-3.83,13.14-8.62A26.68,26.68,0,0,0,239,411.44c-7.46,1-13.52,7-16.61,13.85C220.43,429.6,219.58,435,222.38,438.82Z" transform="translate(-50.25 -36.11)"/><path class="cls-3" d="M221.92,439.6c2.1,1.44,5.4.21,7.48-.85a19.07,19.07,0,0,0,6.95-6.55,27.55,27.55,0,0,0,3.51-21,.92.92,0,0,0-1.11-.63c-6.35.95-11.62,5.2-15.07,10.46s-6,12.7-2.08,18.26c.66,1,2.23,0,1.56-.92-3.58-5.14-.83-12.11,2.32-16.77s8-8.42,13.75-9.28l-1.11-.63a25.87,25.87,0,0,1-2.79,18.72,18.07,18.07,0,0,1-5.78,6.17c-1.65,1-5,2.67-6.71,1.47C221.87,437.38,221,439,221.92,439.6Z" transform="translate(-50.25 -36.11)"/><path class="cls-4" d="M355.26,430.12l.71.48c5.51.29,10.4-3.83,13.13-8.62a26.7,26.7,0,0,0,2.77-19.25c-7.46,1-13.52,7-16.61,13.85C353.32,420.9,352.46,426.31,355.26,430.12Z" transform="translate(-50.25 -36.11)"/><path class="cls-3" d="M354.81,430.9c2.09,1.44,5.4.21,7.47-.86a18.88,18.88,0,0,0,7-6.54,27.56,27.56,0,0,0,3.52-21,.94.94,0,0,0-1.12-.63c-6.35.95-11.62,5.19-15.07,10.46s-5.95,12.7-2.08,18.26c.66.95,2.23,0,1.57-.92-3.59-5.14-.84-12.11,2.31-16.77s8-8.43,13.76-9.28L371,403a25.93,25.93,0,0,1-2.78,18.73,18,18,0,0,1-5.79,6.17c-1.65,1-5,2.67-6.71,1.47C354.76,428.68,353.85,430.25,354.81,430.9Z" transform="translate(-50.25 -36.11)"/><path class="cls-5" d="M370.3,186.54c-.45-3-.9-6.07-.14-9a28.14,28.14,0,0,1,1.82-4.49c1.91-4.18,3.28-8.88,2.23-13.35s-5.22-8.46-9.78-7.94a2,2,0,0,0-1.13.41,2.2,2.2,0,0,0-.42,1.78c.09,1.76.71,4.13.14,5.8a22.89,22.89,0,0,1-3.27,6.25,10.48,10.48,0,0,1-2.31,2.39,18,18,0,0,1-5.22,2.43,8.61,8.61,0,0,0,.7,5.92,27.9,27.9,0,0,0,2.52,3.59,7.63,7.63,0,0,1,1.66,4c.07,1.53.07,3.06.14,4.6A20.83,20.83,0,0,0,370.3,186.54Z" transform="translate(-50.25 -36.11)"/><rect class="cls-3" x="288.69" y="117.43" width="23.62" height="22.36"/><path class="cls-3" d="M337.77,153.54l-18.27,9.83a4.16,4.16,0,0,0,0,4.45l19,8.09Z" transform="translate(-50.25 -36.11)"/><circle class="cls-6" cx="288.69" cy="128.64" r="10.6"/><path class="cls-3" d="M338.94,176.08a11.33,11.33,0,1,1,11.33-11.33A11.34,11.34,0,0,1,338.94,176.08Zm0-21.2a9.88,9.88,0,1,0,9.88,9.87A9.89,9.89,0,0,0,338.94,154.88Z" transform="translate(-50.25 -36.11)"/><circle class="cls-7" cx="284.03" cy="126.44" r="3.5"/><circle class="cls-7" cx="287.02" cy="132" r="1.22"/><circle class="cls-6" cx="310.67" cy="128.64" r="10.6"/><path class="cls-3" d="M360.92,176.08a11.33,11.33,0,1,1,11.32-11.33A11.34,11.34,0,0,1,360.92,176.08Zm0-21.2a9.88,9.88,0,1,0,9.88,9.87A9.89,9.89,0,0,0,360.92,154.88Z" transform="translate(-50.25 -36.11)"/><circle class="cls-7" cx="306.01" cy="126.44" r="3.5"/><circle class="cls-7" cx="309" cy="132" r="1.22"/><path class="cls-8" d="M319.9,194.67A62.18,62.18,0,0,1,346.23,211c2.92,3.05,5.13,2.44,8.86,4.4a5.15,5.15,0,0,1-1.18-4.66,1.13,1.13,0,0,1,.38-.69c.51-.37,1.2.15,1.54.68s.73,1.21,1.36,1.21c-.5-4.42-1.5-4.68-2.58-9s-3.46-12,.73-13.8a125,125,0,0,1,16.09-3.92c10.12-1.36,10.05,29.67,8.41,44.9-.28,2.62-.76,5.36-2.44,7.38-2.64,3.16-7.3,3.54-11.42,3.44a105.57,105.57,0,0,1-24.3-3.48,7.68,7.68,0,0,1-3.51-1.63,8,8,0,0,1-1.77-3.44c-3-9.39-5.63-19.1-11.27-27.18C322.63,201.61,319.35,199,319.9,194.67Z" transform="translate(-50.25 -36.11)"/><path class="cls-3" d="M355.34,189.12l-.72-6.69s13.88-4.24,16.32-2.51l.49,5.28Z" transform="translate(-50.25 -36.11)"/><path class="cls-3" d="M354.81,215.1c2.43,3.38,4.93,6.92,5.54,11.14,0,.28.48.16.44-.12-.62-4.25-3.15-7.84-5.59-11.24-.17-.24-.56,0-.39.22Z" transform="translate(-50.25 -36.11)"/><path class="cls-3" d="M356.68,212.24a22.41,22.41,0,0,0,5.94,6.22c.23.17.46-.22.22-.39a21.73,21.73,0,0,1-5.77-6c-.16-.25-.55,0-.39.22Z" transform="translate(-50.25 -36.11)"/><path class="cls-3" d="M360.7,221.79a7,7,0,0,1,1.08,2.9.23.23,0,0,0,.28.16.23.23,0,0,0,.15-.28,7.29,7.29,0,0,0-1.12-3c-.16-.24-.55,0-.39.23Z" transform="translate(-50.25 -36.11)"/><path class="cls-3" d="M359.93,187.32a17.5,17.5,0,0,0-2.12,6.37,13.93,13.93,0,0,0,.06,6.73c.44,1.4,1.68,3,3.35,2.4,2-.7.78-3.3.91-4.74,0-.28-.42-.28-.44,0-.13,1.33,1.19,4.56-1.28,4.39-2-.14-2.42-2.93-2.51-4.46a20,20,0,0,1,.63-5.56,14.58,14.58,0,0,1,1.79-4.9c.16-.25-.23-.47-.39-.23Z" transform="translate(-50.25 -36.11)"/><path class="cls-3" d="M365.58,186.5a10.48,10.48,0,0,1,2.27,4.79,5.47,5.47,0,0,1,0,2.84,1.49,1.49,0,0,1-.91.91.82.82,0,0,1-1.09-.82c.05-.29-.38-.41-.43-.12a1.27,1.27,0,0,0,1.64,1.38c1.11-.33,1.43-1.57,1.41-2.6a10.82,10.82,0,0,0-2.57-6.7c-.18-.22-.5.1-.31.32Z" transform="translate(-50.25 -36.11)"/><path class="cls-3" d="M369.49,185.62a5.52,5.52,0,0,1,2,3.44c0,.28.48.16.44-.12a6,6,0,0,0-2.11-3.64c-.22-.18-.54.13-.32.32Z" transform="translate(-50.25 -36.11)"/><path class="cls-6" d="M301.88,444.8l-6.06,19.06h36.59s-2.68-12.6-14.17-7.81l2.49-13.26Z" transform="translate(-50.25 -36.11)"/><path class="cls-3" d="M332.85,464.22H295.34l6.27-19.74.23,0,19.32-2.06-2.45,13.1c3.18-1.19,6-1.17,8.33.07,4.41,2.31,5.67,8,5.72,8.23Zm-36.54-.71H332c-.37-1.35-1.8-5.53-5.24-7.33-2.31-1.21-5.11-1.15-8.33.2l-.6.25,2.51-13.43-18.15,1.93Z" transform="translate(-50.25 -36.11)"/><rect class="cls-3" x="246.79" y="423.57" width="33.87" height="0.71"/><path class="cls-3" d="M303.12,460.14c-1.54-5.28-4.35-4.56-4.47-4.53l-.2-.68a3.17,3.17,0,0,1,2.29.36c1.35.74,2.38,2.3,3.06,4.65Z" transform="translate(-50.25 -36.11)"/><path class="cls-3" d="M318.63,453.43a22.91,22.91,0,0,1-4.81,1.21.6.6,0,0,0-.42.73.61.61,0,0,0,.73.41,23.38,23.38,0,0,0,4.81-1.21.61.61,0,0,0,.41-.73.58.58,0,0,0-.72-.41Z" transform="translate(-50.25 -36.11)"/><path class="cls-3" d="M319,450.32a35.66,35.66,0,0,1-5,1.63c-.73.18-.42,1.32.32,1.14a36.59,36.59,0,0,0,5-1.64.61.61,0,0,0,.41-.72.59.59,0,0,0-.73-.41Z" transform="translate(-50.25 -36.11)"/><path class="cls-9" d="M331.39,276.81q6.18,29.76,10.23,59.91c1.17,8.68,2.2,17.44,1.46,26.17-.79,9.24-3.55,18.19-6.05,27.12a545.88,545.88,0,0,0-13.13,59.13c-.17,1.07-29.5-.16-31.1-1.53,5.45-26.85,11.26-54.6,23.4-79.16l-1.15-.54a1.9,1.9,0,0,1-1.11-2l0-.07a1.84,1.84,0,0,1,1.73-1.46,9.55,9.55,0,0,0,3.84-1.1,270.21,270.21,0,0,0-15.32-52.69c-1.71-4.13-3.56-8.34-3.77-12.81a36.31,36.31,0,0,1,1.05-8.85l2.07-10.18c.35-1.73.82-3.64,2.3-4.59a6.71,6.71,0,0,1,4.12-.58C317.29,274.13,324.08,276.27,331.39,276.81Z" transform="translate(-50.25 -36.11)"/><path class="cls-3" d="M318,368a7.58,7.58,0,0,1,5.79,1.63c1.48,1.22,2.86,3.52,1.68,5.38-.16.25.23.47.39.23,1.26-2-.07-4.5-1.66-5.85a8,8,0,0,0-6.32-1.82c-.28,0-.16.47.12.43Z" transform="translate(-50.25 -36.11)"/><path class="cls-3" d="M321.47,365a13.88,13.88,0,0,0,2.42-3.6c.12-.26-.27-.49-.39-.23a13.16,13.16,0,0,1-2.35,3.51c-.19.21.12.53.32.32Z" transform="translate(-50.25 -36.11)"/><path class="cls-3" d="M326.48,387.26a26.5,26.5,0,0,1,7.32-10.75c.21-.19-.11-.51-.32-.32A27,27,0,0,0,326,387.14c-.09.27.34.39.44.12Z" transform="translate(-50.25 -36.11)"/><path class="cls-3" d="M330.26,384l3-4.4c.17-.24-.22-.46-.39-.22l-3,4.4c-.17.24.22.46.38.22Z" transform="translate(-50.25 -36.11)"/><path class="cls-9" d="M292.12,162.69c-1.74-2.58-4.61-7.89-3.09-13a10.34,10.34,0,0,1,6.19-6.56,7.06,7.06,0,0,1,3.79-.45c2.12.39,3.78,2,5.2,3.61a20.47,20.47,0,0,1,10.36-8.88,7.34,7.34,0,0,1,5-.39,5.77,5.77,0,0,1,2.81,2.38c2,3.15,1.71,7.42-.06,10.74s-4.73,5.81-7.85,7.91a54.44,54.44,0,0,1-8.45,4.69c-3,1.36-6.4,2.46-9.66,1.77S291.56,166,292.12,162.69Z" transform="translate(-50.25 -36.11)"/><path class="cls-10" d="M304.31,146.12a27.19,27.19,0,0,0-6.83,7.81,11.38,11.38,0,0,1-2-5.48c0-2,1.14-4.22,3.12-4.66a4.62,4.62,0,0,1,3.1.53A18.82,18.82,0,0,1,304.31,146.12Z" transform="translate(-50.25 -36.11)"/><path class="cls-3" d="M315.79,159.37a4.63,4.63,0,0,0,5.25-.18,7.37,7.37,0,0,0,2.76-4.73,6.81,6.81,0,0,0-.25-3.77,4,4,0,0,0-2.72-2.46,2.86,2.86,0,0,0-3.18,1.52c0,.07,0,.17,0,.2s.08-.13,0-.08c.25-.82-.54-1.79-1.17-2.37a4.11,4.11,0,0,0-4.34-.52,6.48,6.48,0,0,0-3.1,3.28c-.07.15-.08.4.08.41,0-1.61-2-2.76-3.61-2.55a6,6,0,0,0-3.84,2.72,12.52,12.52,0,0,0-2.05,4.7c-.24,1.16-.4,2.49-1.36,3.16s-2,.43-3,.57a5,5,0,0,0-4.16,5.33,10.23,10.23,0,0,1,.28,2.51,7.2,7.2,0,0,1-.68,1.77,8.58,8.58,0,0,0-.47,5.52,2.18,2.18,0,0,0,.73,2.66,6.41,6.41,0,0,0,2.77,1,5.9,5.9,0,0,1,2.75,1c.49.41.84,1,1.36,1.34,1.34,1,3.32.28,4.39-1a12.74,12.74,0,0,0,2-4.5C306.11,169.15,311,163.13,315.79,159.37Z" transform="translate(-50.25 -36.11)"/><path class="cls-5" d="M307.05,191.53c-.08-4.74-.29-6.2-.23-10.77,3.12.61,6.93,1,9.86-.74,2-1.18,1.52-4.48,1.64-6.82a43.44,43.44,0,0,0-2.11-15.56,6.82,6.82,0,0,0-1.6-3,5.27,5.27,0,0,0-3.83-1.18,10,10,0,0,0-7,3.55,12.91,12.91,0,0,0-2.93,7.4,3.12,3.12,0,0,0-4-1.86,5.4,5.4,0,0,0-2.42,2.55,6.61,6.61,0,0,0-.77,1.94,4.43,4.43,0,0,0,6.81,4.55c-1.46,5.85-3.2,12.88-4.66,18.73l-14.48,7.49s11.51,5.23,24.16,3.57c0,0,10.71-.63,13.38-2.74Z" transform="translate(-50.25 -36.11)"/><path class="cls-3" d="M298.78,165.11a3.05,3.05,0,0,0-1.43,5c.19.22.5-.1.31-.32a2.61,2.61,0,0,1,1.23-4.25c.28-.08.16-.52-.11-.43Z" transform="translate(-50.25 -36.11)"/><path class="cls-3" d="M297.19,167.67h.09l.11,0,.1,0h0l.05,0,.2.12,0,0h0l0,0,.09.09a.27.27,0,0,1,.07.08l0,0s0,0,0,0a.82.82,0,0,1,.12.2l0,.05s0,0,0,0a.36.36,0,0,0,0,.11.52.52,0,0,1,0,.11.13.13,0,0,1,0,.06s0,0,0,0v0a.22.22,0,0,0,.22.22.23.23,0,0,0,.23-.22,1.74,1.74,0,0,0-1.53-1.54.22.22,0,0,0-.22.22.23.23,0,0,0,.22.23Z" transform="translate(-50.25 -36.11)"/><path class="cls-3" d="M302.7,192.83a3.41,3.41,0,0,0-1.84-1.3.22.22,0,0,0-.12.43,3,3,0,0,1,1.57,1.1.25.25,0,0,0,.31.08.24.24,0,0,0,.08-.31Z" transform="translate(-50.25 -36.11)"/><path class="cls-3" d="M304.64,193.17a3.3,3.3,0,0,1,1-1.56.23.23,0,1,0-.32-.32,3.93,3.93,0,0,0-1.1,1.76.23.23,0,0,0,.16.28.24.24,0,0,0,.28-.16Z" transform="translate(-50.25 -36.11)"/><path class="cls-3" d="M306.71,163a7.46,7.46,0,0,1,3.13-2.09.39.39,0,0,0,.26-.45.38.38,0,0,0-.45-.26,8.32,8.32,0,0,0-3.46,2.28c-.31.35.2.87.52.52Z" transform="translate(-50.25 -36.11)"/><path class="cls-3" d="M314.25,160.6a9.18,9.18,0,0,1,2.51.17.36.36,0,0,0,.2-.7,9.86,9.86,0,0,0-2.71-.2.37.37,0,0,0,0,.73Z" transform="translate(-50.25 -36.11)"/><path class="cls-3" d="M301.63,174.91a10.87,10.87,0,0,0,.61,2.5,4.63,4.63,0,0,0,1.24,2,7.22,7.22,0,0,0,2.12,1,21.37,21.37,0,0,0,2.67.78c.28.07.4-.37.12-.43a21.4,21.4,0,0,1-2.37-.68,8.06,8.06,0,0,1-2.1-.93,4,4,0,0,1-1.25-1.9,10.36,10.36,0,0,1-.59-2.38c0-.29-.49-.29-.45,0Z" transform="translate(-50.25 -36.11)"/><ellipse class="cls-11" cx="308.53" cy="168.98" rx="1.19" ry="1.84" transform="translate(81.46 436.97) rotate(-88.53)"/><ellipse class="cls-11" cx="317.08" cy="168.65" rx="1.19" ry="1.1" transform="translate(90.12 445.2) rotate(-88.53)"/><path class="cls-3" d="M314.33,168.5a1.48,1.48,0,0,1,.92-.17.84.84,0,0,1,.63.44.76.76,0,0,1,.08.33.49.49,0,0,1-.11.31l0,0s0,0-.05.05l-.05,0-.09.05-.06,0-.08,0-.1,0h-.07a1.91,1.91,0,0,1-.87-.17.22.22,0,0,0-.27.16.21.21,0,0,0,.15.27,1.62,1.62,0,0,0,1.86-.2,1,1,0,0,0,.15-1,1.27,1.27,0,0,0-.81-.76,1.88,1.88,0,0,0-1.41.18.22.22,0,0,0,.22.39Z" transform="translate(-50.25 -36.11)"/><path class="cls-3" d="M311.3,170.78a3.08,3.08,0,0,0,.13,1.62,1.41,1.41,0,0,0,1,.85,2.34,2.34,0,0,0,1.44-.32,2.84,2.84,0,0,0,1-1c.15-.25-.24-.47-.39-.23a2.45,2.45,0,0,1-.79.78,2,2,0,0,1-1.15.31,1,1,0,0,1-.73-.66,2.92,2.92,0,0,1-.06-1.38.23.23,0,0,0-.23-.22.22.22,0,0,0-.22.22Z" transform="translate(-50.25 -36.11)"/><path class="cls-3" d="M311,173.66a.74.74,0,0,0,.35.35.8.8,0,0,0,.55.07.23.23,0,0,0,.15-.28.21.21,0,0,0-.27-.15h-.08l-.15,0,.05,0-.13-.08,0,0-.1-.1,0,0a.39.39,0,0,1-.06-.11.24.24,0,0,0-.31-.08.21.21,0,0,0-.1.13v.06a.27.27,0,0,0,0,.12Z" transform="translate(-50.25 -36.11)"/><ellipse class="cls-6" cx="315.78" cy="165.16" rx="1.63" ry="1.3" transform="translate(88.59 438.39) rotate(-87.84)"/><ellipse class="cls-3" cx="316.55" cy="165.2" rx="0.55" ry="0.44" transform="translate(89.29 439.19) rotate(-87.84)"/><path class="cls-3" d="M311.32,164.27a4.5,4.5,0,0,1-.17,1.71.93.93,0,0,1-.4.64,1.14,1.14,0,0,1-.81.08,3.47,3.47,0,0,1-2.2-1.83c-.12-.24-.47,0-.35.2a3.73,3.73,0,0,0,2.71,2.06,1.24,1.24,0,0,0,1.37-.8,5,5,0,0,0,.26-2.06C311.7,164,311.3,164,311.32,164.27Z" transform="translate(-50.25 -36.11)"/><path class="cls-3" d="M287.47,188.94c-11.31-3.11-23.16-5.74-34.67-3.53s-22.61,10.48-24.67,22a14.72,14.72,0,0,0,.53,7.9c2.45,6.26,11.44,8.75,16.76,4.64-2.45,5.77-6.08,10.82-9.87,15.81S228,246,226.24,252s-1.41,13,2.49,17.92a25.37,25.37,0,0,0,5.77,5,92.15,92.15,0,0,0,22.25,11.19,11,11,0,0,0,5.52.83c2.7-.5,4.67-2.78,6.24-5,6.37-9.06,10.07-19.74,12.66-30.51C286.14,230.77,286.35,210.15,287.47,188.94Z" transform="translate(-50.25 -36.11)"/><path class="cls-6" d="M254.3,448.24v15.62h36.59s-2.68-12.6-14.17-7.81l-3.57-9.81Z" transform="translate(-50.25 -36.11)"/><path class="cls-3" d="M291.32,464.22H253.94V447.93l19.45-2.07,3.54,9.73c3.27-1.29,6.17-1.31,8.59,0,4.41,2.31,5.66,8,5.71,8.23Zm-36.67-.71h35.78c-.38-1.35-1.8-5.53-5.24-7.33-2.31-1.21-5.12-1.15-8.33.2l-.35.14-3.6-9.9-18.26,1.94Z" transform="translate(-50.25 -36.11)"/><rect class="cls-3" x="204.05" y="423.57" width="35.08" height="0.71"/><path class="cls-3" d="M261.6,460.14c-1.57-5.36-7-4.77-7.26-4.74l-.09-.7c.07,0,6.29-.71,8,5.24Z" transform="translate(-50.25 -36.11)"/><path class="cls-3" d="M275.64,453.28a21.93,21.93,0,0,1-4.22,2.32.61.61,0,0,0-.41.73.61.61,0,0,0,.73.41,23.78,23.78,0,0,0,4.49-2.44.61.61,0,0,0,.22-.81.6.6,0,0,0-.81-.21Z" transform="translate(-50.25 -36.11)"/><path class="cls-3" d="M274.89,450.82a35,35,0,0,1-4.52,2.32.61.61,0,0,0-.41.72.59.59,0,0,0,.72.42,37.43,37.43,0,0,0,4.81-2.44.59.59,0,0,0-.6-1Z" transform="translate(-50.25 -36.11)"/><path class="cls-9" d="M310.66,280.24c-16.71,49-29.45,96.72-31.54,146.38-.32,7.65-.49,15.3-.66,23-9.11.62-18.47.76-27.29-1.58-.79-31.48,4.59-63.52,11.36-94.28q8.33-37.82,16.64-75.63C287.15,275.53,302.64,277.81,310.66,280.24Z" transform="translate(-50.25 -36.11)"/><path class="cls-3" d="M295.4,329.85c2.29-7.91,4.55-15.87,7.28-23.64,2.37-6.74,5.52-13.41,11.26-17.93.26-.2-.11-.57-.37-.37-5.5,4.33-8.66,10.64-11,17.1-2.95,8.08-5.28,16.43-7.67,24.7a.26.26,0,0,0,.51.14Z" transform="translate(-50.25 -36.11)"/><path class="cls-3" d="M290,282a19.17,19.17,0,0,1-14.56,12.42c-.33.06-.19.56.14.5a19.66,19.66,0,0,0,14.92-12.78c.11-.32-.39-.46-.5-.14Z" transform="translate(-50.25 -36.11)"/><path class="cls-3" d="M279,293.93a546.58,546.58,0,0,0-20.13,119.64q-1,17.21-.81,34.45a.26.26,0,0,0,.52,0,546.29,546.29,0,0,1,12.58-120.87q3.64-16.66,8.34-33.08a.26.26,0,0,0-.5-.14Z" transform="translate(-50.25 -36.11)"/><path class="cls-3" d="M283,353.8l-6.31,6.62c-.23.25.14.62.37.37l6.31-6.62c.24-.25-.13-.62-.37-.37Z" transform="translate(-50.25 -36.11)"/><path class="cls-3" d="M273.59,363.11l-2.2,1.82a.28.28,0,0,0,0,.37.27.27,0,0,0,.37,0l2.2-1.82a.26.26,0,0,0,0-.37.27.27,0,0,0-.37,0Z" transform="translate(-50.25 -36.11)"/><path class="cls-3" d="M279.25,369.66l-11.87,13.1c-.22.25.15.62.37.37L279.62,370c.22-.25-.15-.62-.37-.37Z" transform="translate(-50.25 -36.11)"/><path class="cls-6" d="M334.49,277.23c.91-11.89,3.86-23.49,5-35.36.85-9,.57-18.49-2.43-27-3.41-9.72-11.14-13.81-19.45-17.86-8.35,4.4-19.15,2.25-25.58-5.1-4.05,2-8.5,2.79-12.74,4.24s-8.5,3.78-10.88,7.92c-1.72,3-2.29,6.54-2.64,10-2.19,21.8,6.26,66.56,6.26,66.56S315.46,285.08,334.49,277.23Z" transform="translate(-50.25 -36.11)"/><path class="cls-8" d="M297.79,182.28c-.53,2.86-1.51,5.72-2,8.58.05-.45-4.49,2.44-7,3.43,4.34,33.92,11.47,68,9,102.15-8.94,2.69-23.51,3.38-32.76,4.62C263.92,276,262.5,251,261.4,226c-.29-6.48-.55-13.14,1.6-19.26s7.33-11.63,13.79-12.18c.62-4.23,4.61-8,8.44-9.9S293.55,182.86,297.79,182.28Z" transform="translate(-50.25 -36.11)"/><path class="cls-8" d="M337.85,295.61l-9.2-5a6.6,6.6,0,0,1,0-1.72c1.46-17.08,1.87-34-.44-51-1.83-13.47-1.58-29.35-11.26-38.9a40.48,40.48,0,0,0-10.09-7.21l-.08-9.59a14.3,14.3,0,0,1,9.54,9,40,40,0,0,1,23.36,24.61c4.14,12.62,2.43,26.45,1,39.65S337.65,295.89,337.85,295.61Z" transform="translate(-50.25 -36.11)"/><path class="cls-3" d="M277,276.11s3.74-7.57,4.23-13.61l5.26,1.29s.41,10.41-3.59,14.4Z" transform="translate(-50.25 -36.11)"/><path class="cls-3" d="M271.82,191.79c4.82,4.45,7.61,10.38,9.21,16.66a71.74,71.74,0,0,1,2,21.65,48.86,48.86,0,0,1-16,33.23,47.57,47.57,0,0,1-17.7,10.28c-2.21.7-1.27,4.2,1,3.49A53,53,0,0,0,280,252.82c7.42-13.08,8.08-28.64,5-43.13-1.63-7.64-4.84-15.09-10.66-20.46-1.71-1.58-4.28,1-2.56,2.56Z" transform="translate(-50.25 -36.11)"/><path class="cls-3" d="M316.83,192.25c8.66,5.2,15.17,13.07,19.82,21.94a81.83,81.83,0,0,1,5.71,14.12c1.49,4.88,2.78,9.88,2.7,15a24.87,24.87,0,0,1-5.86,16.19c-1.54,1.74,1,4.31,2.56,2.56,7.74-8.77,7.95-20.44,5.09-31.22-2.81-10.62-7.37-20.92-14.29-29.53a52.81,52.81,0,0,0-13.9-12.2c-2-1.2-3.83,1.93-1.83,3.13Z" transform="translate(-50.25 -36.11)"/><path class="cls-8" d="M242.33,231.16c-2.48,3.66-5,7.58-5.25,12-.25,3.5.91,7,2.4,10.13,4.43,9.46,11.85,17.27,20.23,23.49,3.72,2.76,8.51,5.34,12.75,3.49a11.48,11.48,0,0,0,4.55-4.15c4.66-6.59,6.18-16.27,1-22.48-3.27-3.95-8.42-5.67-13.13-7.7a2.6,2.6,0,0,1-1.48-1.16,2.54,2.54,0,0,1,0-1.52c1.15-5.67,2.71-11.24,4.05-16.86a87.11,87.11,0,0,0,2.67-17,44.38,44.38,0,0,0-.49-8.54c-.17-1.07-.56-2.82-1.8-1.59-1,1-2,2.11-2.91,3.17q-5.78,6.39-11.13,13.15t-10.26,13.85Z" transform="translate(-50.25 -36.11)"/><path class="cls-3" d="M291.3,186.09c-4.33,1.85-2.82,7.64-2.29,11.18l2.43,16.59c.05.28.48.16.44-.12l-2.05-13.91c-.36-2.44-.86-4.91-1-7.38s.33-4.95,2.72-6c.27-.11,0-.49-.22-.38Z" transform="translate(-50.25 -36.11)"/><path class="cls-3" d="M290.6,192.13a4.69,4.69,0,0,1,1.71-2.86.23.23,0,0,0,0-.32.22.22,0,0,0-.32,0,5.1,5.1,0,0,0-1.82,3.06c-.05.29.38.41.43.12Z" transform="translate(-50.25 -36.11)"/><path class="cls-3" d="M284.76,211.9a95.09,95.09,0,0,1,7.54,10.22c.16.24.55,0,.39-.23a95.77,95.77,0,0,0-7.62-10.3c-.18-.22-.5.1-.31.31Z" transform="translate(-50.25 -36.11)"/><path class="cls-3" d="M326,215.71c.52-4,.91-7.9-.08-11.83a48.53,48.53,0,0,0-4.55-10.55c-.14-.26-.52,0-.39.22a47.59,47.59,0,0,1,4.5,10.45c1,3.89.58,7.78.07,11.71,0,.28.41.28.45,0Z" transform="translate(-50.25 -36.11)"/><path class="cls-3" d="M307.2,191.52a35.77,35.77,0,0,1,18.35,26.34c0,.28.47.16.43-.12a36.19,36.19,0,0,0-18.56-26.61c-.25-.14-.48.25-.22.39Z" transform="translate(-50.25 -36.11)"/><path class="cls-3" d="M307.83,188.19A16.79,16.79,0,0,1,312,191.4c.19.21.51-.11.31-.32a16.91,16.91,0,0,0-4.24-3.28c-.25-.14-.48.25-.22.39Z" transform="translate(-50.25 -36.11)"/><path class="cls-3" d="M309.06,186.52a5,5,0,0,0,2.19,1.65.23.23,0,0,0,.27-.16.23.23,0,0,0-.16-.28,4.32,4.32,0,0,1-1.91-1.44.25.25,0,0,0-.31-.08.22.22,0,0,0-.08.31Z" transform="translate(-50.25 -36.11)"/><path class="cls-3" d="M309.34,268.48q5.81-11.1,12.48-21.71c.16-.25-.23-.47-.38-.23q-6.69,10.61-12.49,21.71c-.13.26.26.49.39.23Z" transform="translate(-50.25 -36.11)"/><path class="cls-3" d="M317.91,259.49a16.45,16.45,0,0,1,3.9-6.53.22.22,0,0,0-.32-.31,16.92,16.92,0,0,0-4,6.72.23.23,0,0,0,.44.12Z" transform="translate(-50.25 -36.11)"/><path class="cls-3" d="M260.31,237.39c6.05,3,10.77,8.2,15,13.34a29,29,0,0,1,5.58,9.58,45.64,45.64,0,0,1,1.54,11.1c0,.29.46.29.45,0a47.94,47.94,0,0,0-1.47-10.93,27.68,27.68,0,0,0-5-9.14c-4.36-5.53-9.45-11.17-15.85-14.34-.25-.12-.48.26-.22.39Z" transform="translate(-50.25 -36.11)"/><path class="cls-3" d="M269.09,243.69c-.31-5.35-3.92-9.64-7.3-13.5-.19-.21-.51.1-.32.32,3.29,3.76,6.87,8,7.17,13.18,0,.29.46.29.45,0Z" transform="translate(-50.25 -36.11)"/><path class="cls-3" d="M270.59,240.22a44.36,44.36,0,0,0-.75-8.28c0-.28-.48-.16-.43.12a43.91,43.91,0,0,1,.73,8.16.23.23,0,0,0,.45,0Z" transform="translate(-50.25 -36.11)"/><path class="cls-3" d="M277.68,275.2c-.11,1.8-3.48,2.73-4.88,3.13a18.35,18.35,0,0,1-5.47.7,18.06,18.06,0,0,1-10.2-3.42c-.23-.17-.46.22-.23.39a18.57,18.57,0,0,0,11.71,3.46,18.27,18.27,0,0,0,6-1.27c1.34-.54,3.44-1.29,3.55-3,0-.29-.43-.29-.45,0Z" transform="translate(-50.25 -36.11)"/><path class="cls-3" d="M281.69,270.3a26.13,26.13,0,0,0-4.54-10.95c-.8-1.11-2.2-2.72-3.75-2.09-1.39.56-1.56,2.43-1.19,3.69a4.71,4.71,0,0,0,3.52,3.29c.28.06.4-.38.12-.43a4.27,4.27,0,0,1-3.36-3.8c-.07-1,.34-2.42,1.58-2.43,1,0,1.92,1,2.5,1.73a25.63,25.63,0,0,1,4.69,11.11c0,.29.48.16.43-.12Z" transform="translate(-50.25 -36.11)"/><path class="cls-3" d="M280.51,273.09a16.42,16.42,0,0,1-4.24.52,7.45,7.45,0,0,1-3.4-.64,2.37,2.37,0,0,1-1.46-2.33c.1-.87.73-1.78,1.7-1.65.28,0,.28-.41,0-.45a2,2,0,0,0-2,1.54,2.56,2.56,0,0,0,.9,2.83A6.1,6.1,0,0,0,275.5,274a16.75,16.75,0,0,0,5.13-.52.22.22,0,0,0-.12-.43Z" transform="translate(-50.25 -36.11)"/><path class="cls-3" d="M338.43,215.58a188.81,188.81,0,0,1,3.82,22.4c0,.28.48.29.45,0a188.3,188.3,0,0,0-3.84-22.51.22.22,0,0,0-.43.11Z" transform="translate(-50.25 -36.11)"/><path class="cls-3" d="M313.84,137.54a22,22,0,0,0-6.12,3.89c-1.81,1.75-3.25,3.9-4.92,5.79-3.25,3.65-6.69,7.18-9,11.54-.13.26.25.49.39.23,2.27-4.33,5.69-7.83,8.91-11.46,1.56-1.75,2.92-3.7,4.53-5.4a21,21,0,0,1,6.42-4.2c.26-.12,0-.51-.23-.39Z" transform="translate(-50.25 -36.11)"/><path class="cls-3" d="M307.38,147.2a18.94,18.94,0,0,1,6.55-5.78c2.28-1.08,6.19-1.87,7.87.65.16.23.55,0,.39-.23-1.62-2.42-5.13-2.11-7.52-1.22-3.16,1.19-5.57,3.64-7.61,6.26-.17.23.14.55.32.32Z" transform="translate(-50.25 -36.11)"/><path class="cls-3" d="M314.07,143.59a6.2,6.2,0,0,1,4.11-.73c.28,0,.4-.38.12-.43a6.67,6.67,0,0,0-4.46.77c-.25.14,0,.53.23.39Z" transform="translate(-50.25 -36.11)"/><path class="cls-3" d="M297.51,153.58a13.33,13.33,0,0,1-1.35-3.29,8.3,8.3,0,0,1-.29-3.67,3.58,3.58,0,0,1,4.48-2.58.22.22,0,0,0,.12-.43,4,4,0,0,0-4.88,2.39,7.12,7.12,0,0,0,0,3.91,14,14,0,0,0,1.51,3.9c.14.25.53,0,.39-.23Z" transform="translate(-50.25 -36.11)"/><path class="cls-3" d="M297.7,149.7a7.39,7.39,0,0,0,.29-2c0-.48,0-1-.55-1.25a.23.23,0,0,0-.26.11,2.88,2.88,0,0,0-.26,1.26,2,2,0,0,0,.34,1.2c.7.83,1.3-.83,1.51-1.26l-.26.1c.12,0,.12.31.15.41a.65.65,0,0,0,.27.36c.34.18.55-.14.65-.41a5.77,5.77,0,0,0,.34-1.36c0-.32.08-.72-.21-.94a.5.5,0,0,0-.73.1.65.65,0,0,0,.33.82,1,1,0,0,0,1.41-.43l-.35,0c.17.15.1.45.32.6a.46.46,0,0,0,.67-.24c.06-.13.06-.29.13-.41s0-.08.14-.05a.76.76,0,0,0,.21.08c.27,0,.58-.17.48-.47s-.52-.16-.43.12c.05-.06.05-.1,0-.1l-.07,0-.14-.06a.61.61,0,0,0-.3,0,.6.6,0,0,0-.33.38c0,.09,0,.18-.06.26s-.06.13-.06.13,0-.06,0-.08a.86.86,0,0,0-.22-.46.22.22,0,0,0-.35.05.59.59,0,0,1-.69.31.56.56,0,0,1-.17-.09s-.15-.16-.07-.15.07.54.06.63a4.15,4.15,0,0,1-.15.7,2.73,2.73,0,0,1-.2.61,3.44,3.44,0,0,1-.15-.48.48.48,0,0,0-.34-.29.23.23,0,0,0-.25.1c-.15.3-.29.6-.44.89a.75.75,0,0,1-.18.31c-.14.11-.2-.05-.24-.17a2.29,2.29,0,0,1,.05-1.78l-.25.11c.33.13.22.91.21,1.18a6.36,6.36,0,0,1-.26,1.56.22.22,0,0,0,.43.11Z" transform="translate(-50.25 -36.11)"/><path class="cls-3" d="M286.08,257.87a31,31,0,0,1-7.45,26.47c-.19.22.13.54.32.32a31.55,31.55,0,0,0,7.56-26.91c-.05-.28-.48-.16-.43.12Z" transform="translate(-50.25 -36.11)"/><path class="cls-3" d="M287.71,284.78a11.26,11.26,0,0,0,3.12-5.67c.06-.28-.37-.4-.44-.12a10.86,10.86,0,0,1-3,5.48.22.22,0,0,0,.31.31Z" transform="translate(-50.25 -36.11)"/><path class="cls-3" d="M290.14,283.58l1.11-1.44a.23.23,0,0,0-.08-.3.23.23,0,0,0-.31.08l-1.1,1.44a.21.21,0,0,0,.08.3.22.22,0,0,0,.3-.08Z" transform="translate(-50.25 -36.11)"/><path class="cls-11" d="M550,185.09a6.27,6.27,0,0,1-.89,1.7,6,6,0,0,1-2,1.54,7.41,7.41,0,0,1-3.49.88,4.19,4.19,0,0,1-3.19-1.47,4.5,4.5,0,0,1-.33-4.52,9.31,9.31,0,0,1,2.25-3,12.1,12.1,0,0,1,3-2.34c2.12-1,4.11,1,4.89,2.81A5.77,5.77,0,0,1,550,185.09Z" transform="translate(-50.25 -36.11)"/><path class="cls-5" d="M476.79,234c5.74-2.15,8.77-2.44,14.83-3.38,4.41-.69,9-1.07,13-3a29.7,29.7,0,0,0,5.36-3.56,95.79,95.79,0,0,0,14.72-14.93q3.54-4.39,7.47-8.46a24.67,24.67,0,0,1,6.84-5.46c4.21-2,9.46-1.9,13-4.92,1-.82,1.8-2.07,1.41-3.26-.59-1.8-3.18-1.75-4.93-1s-3.84,1.67-5.4.6a3.33,3.33,0,0,1-.84-4.07,8.34,8.34,0,0,1,3.08-3.22,36.53,36.53,0,0,1,5.12-2.92,11.53,11.53,0,0,0,2.8-1.59,3.18,3.18,0,0,0,1.19-2.85,3.09,3.09,0,0,0-2.76-2.25,8.21,8.21,0,0,0-3.73.7c-6.91,2.57-13.63,7.06-16.36,13.91-4.31,10.79-17.33,15.2-26.11,22.82a23.27,23.27,0,0,1-5,3.61,20.41,20.41,0,0,1-5.83,1.54c-6.11.95-12.29,1.4-18.46,1.84-2.85,6.77-3.68,8.67-2.69,15.94C473.43,229.63,476.86,234.46,476.79,234Z" transform="translate(-50.25 -36.11)"/><path class="cls-10" d="M477.57,236.4a59.37,59.37,0,0,1,15.62-3.46c3.88-.32,7.88-.28,11.52-1.65,5.38-2,9.15-6.81,12.64-11.37,4.21-5.5,16-7.92,13-15.9a18,18,0,0,0-7.6-10.81c-5.78-3.54-14.63,7.61-20.65,13.2a4.41,4.41,0,0,1-2.81,1.55c-.94,0-1.79-.64-2.74-.65a6.08,6.08,0,0,0-2.72,1.15,13.9,13.9,0,0,1-6.21,1.17l-26.08.88a5,5,0,0,0,.13,3.17,64.28,64.28,0,0,0,8.24,16C471.78,232.43,475,234.26,477.57,236.4Z" transform="translate(-50.25 -36.11)"/><path class="cls-3" d="M522.71,193.21l4.25-3.54s7.28,5.1,8.4,9.39l-5.05,5A20.42,20.42,0,0,0,522.71,193.21Z" transform="translate(-50.25 -36.11)"/><path class="cls-3" d="M549.16,170.24a1.75,1.75,0,0,0,1.77,1.58c1.13.07,2.08-.78,3-1.35.24-.16,0-.55-.23-.39a5.59,5.59,0,0,1-2.51,1.29c-.67,0-1.55-.36-1.54-1.13a.23.23,0,0,0-.45,0Z" transform="translate(-50.25 -36.11)"/><path class="cls-3" d="M544.86,181.5a5.29,5.29,0,0,1,1,3.67c0,.29.41.29.44,0a5.61,5.61,0,0,0-1-3.89c-.17-.24-.56,0-.39.22Z" transform="translate(-50.25 -36.11)"/><path class="cls-3" d="M545.76,183.05a3.14,3.14,0,0,0-1.52,3.4c.06.28.5.16.43-.12a2.68,2.68,0,0,1,1.31-2.89c.26-.14,0-.53-.22-.39Z" transform="translate(-50.25 -36.11)"/><path class="cls-3" d="M553.21,187a4.27,4.27,0,0,0-2.77,4.31c0,.28.47.28.45,0a3.82,3.82,0,0,1,2.44-3.88c.27-.1.15-.53-.12-.43Z" transform="translate(-50.25 -36.11)"/><path class="cls-3" d="M546.36,191.4l.18.86a.22.22,0,0,0,.27.16.25.25,0,0,0,.16-.28l-.17-.86a.23.23,0,0,0-.28-.15.23.23,0,0,0-.16.27Z" transform="translate(-50.25 -36.11)"/><path class="cls-3" d="M547.2,191.41l.18.68a.22.22,0,0,0,.28.16.23.23,0,0,0,.15-.28l-.18-.68a.22.22,0,1,0-.43.12Z" transform="translate(-50.25 -36.11)"/><path class="cls-3" d="M543.82,173l.51.85a.23.23,0,0,0,.31.08.22.22,0,0,0,.08-.3l-.51-.86a.23.23,0,0,0-.31-.08.24.24,0,0,0-.08.31Z" transform="translate(-50.25 -36.11)"/><path class="cls-3" d="M545.16,172.38l.32,1a.23.23,0,0,0,.44-.12l-.33-1a.23.23,0,0,0-.27-.16.24.24,0,0,0-.16.28Z" transform="translate(-50.25 -36.11)"/><path class="cls-3" d="M493.32,217a39.61,39.61,0,0,1,1.55-5.77,2.79,2.79,0,0,1,.72-1.23,1,1,0,0,1,1.42,0,2.72,2.72,0,0,1,.46,1.14,6.31,6.31,0,0,1,.22,1.49,1.91,1.91,0,0,1-.12.75.79.79,0,0,1-.2.34c-.37.1-.6,0-.68-.34a2.5,2.5,0,0,1,.38-1.49c.36-.75.93-1.56,1.85-1.59s1.82.85,2.44,1.53a14.57,14.57,0,0,1,1.81,2.46c.15.24.54,0,.39-.23a15.38,15.38,0,0,0-2-2.68,4.15,4.15,0,0,0-2.36-1.51,2.19,2.19,0,0,0-2,.92,4.34,4.34,0,0,0-1,2.41c0,.64.66,1.35,1.33.95s.63-1.69.5-2.4a3.54,3.54,0,0,0-.91-2.25,1.5,1.5,0,0,0-2,.28,7.69,7.69,0,0,0-1.32,3.14c-.39,1.3-.7,2.62-1,4-.06.28.38.4.43.12Z" transform="translate(-50.25 -36.11)"/><path class="cls-3" d="M445.22,202.13c-11.09-1.44-22.65-2.36-33.23,1.26s-20,12.9-20.4,24.08a14,14,0,0,0,1.55,7.39c3.14,5.6,12,6.76,16.46,2.17-1.56,5.78-4.32,11-7.24,16.25s-5.74,10.66-6.65,16.57.4,12.48,4.73,16.61a24.65,24.65,0,0,0,6.12,4,88.2,88.2,0,0,0,22.51,7.62,10.58,10.58,0,0,0,5.33.05c2.48-.83,4-3.25,5.23-5.58,4.82-9.4,6.9-20,7.92-30.5C449.51,241.84,447,222.33,445.22,202.13Z" transform="translate(-50.25 -36.11)"/><path class="cls-10" d="M450.65,444.57l1.54,19.29h32.57s.45-14.61-17.51-9.59l2.9-9.15Z" transform="translate(-50.25 -36.11)"/><path class="cls-3" d="M485.1,464.22H451.86l-1.59-20,20.35.57-2.84,9c5.86-1.53,10.37-1.1,13.4,1.27,4.06,3.18,3.94,8.61,3.93,8.84Zm-32.59-.71H484.4c0-1.22-.44-5.41-3.66-7.92-2.95-2.31-7.46-2.64-13.4-1l-.63.17,3-9.32L451,444.94Z" transform="translate(-50.25 -36.11)"/><rect class="cls-3" x="402.7" y="424.46" width="31.44" height="0.71"/><path class="cls-3" d="M465.23,457.94a9.13,9.13,0,0,1,.53-.84l.15-.21.08-.1c.06-.08-.08.11,0,0l.31-.38a11.83,11.83,0,0,1,1.45-1.38.59.59,0,0,0,0-.83.6.6,0,0,0-.83,0,11.17,11.17,0,0,0-2.73,3.16.59.59,0,0,0,1,.6Z" transform="translate(-50.25 -36.11)"/><path class="cls-3" d="M469.08,458.58a16.65,16.65,0,0,1,3.55-4.73.59.59,0,1,0-.83-.83,17.26,17.26,0,0,0-3.73,5,.59.59,0,1,0,1,.6Z" transform="translate(-50.25 -36.11)"/><path class="cls-3" d="M474.44,458a16.43,16.43,0,0,1,3-3.93.59.59,0,0,0,0-.83.61.61,0,0,0-.84,0,17.92,17.92,0,0,0-3.19,4.16.61.61,0,0,0,.21.81.6.6,0,0,0,.81-.21Z" transform="translate(-50.25 -36.11)"/><path class="cls-10" d="M398.83,444.57l1.54,19.29h32.57s.45-14.61-17.51-9.59l2.9-9.15Z" transform="translate(-50.25 -36.11)"/><path class="cls-3" d="M433.28,464.22H400l-1.59-20,20.36.57-2.85,9c5.86-1.53,10.37-1.1,13.41,1.27,4.05,3.18,3.93,8.61,3.92,8.84Zm-32.58-.71h31.88c-.05-1.22-.44-5.41-3.65-7.92-3-2.31-7.47-2.64-13.41-1l-.63.17,3-9.32-18.63-.52Z" transform="translate(-50.25 -36.11)"/><rect class="cls-3" x="350.88" y="424.46" width="31.44" height="0.71"/><path class="cls-3" d="M413.41,457.94a9.13,9.13,0,0,1,.53-.84l.15-.21a.39.39,0,0,0,.08-.1c.06-.08-.08.11,0,0l.31-.38A11.83,11.83,0,0,1,416,455a.59.59,0,0,0,0-.83.6.6,0,0,0-.83,0,11.17,11.17,0,0,0-2.73,3.16.59.59,0,0,0,1,.6Z" transform="translate(-50.25 -36.11)"/><path class="cls-3" d="M417.27,458.58a16.43,16.43,0,0,1,3.54-4.73A.59.59,0,0,0,420,453a17.26,17.26,0,0,0-3.73,5,.6.6,0,0,0,.21.81.61.61,0,0,0,.81-.21Z" transform="translate(-50.25 -36.11)"/><path class="cls-3" d="M422.62,458a16.43,16.43,0,0,1,3-3.93.59.59,0,0,0,0-.83.61.61,0,0,0-.84,0,17.92,17.92,0,0,0-3.19,4.16.61.61,0,0,0,.21.81.6.6,0,0,0,.81-.21Z" transform="translate(-50.25 -36.11)"/><path class="cls-9" d="M475,284.75a293.51,293.51,0,0,1-1,44.57c-1.16,11.6-3,23.13-3.62,34.77-.53,10.3-.09,20.63.35,30.94l2.25,52.66c-9.68.29-18.71-1.2-28.16-3.33,1.41-22.49,4.75-45.05,6-67.55s-.22-45.65-9-66.41a14.22,14.22,0,0,0-2.88-4.79c3.14-9.77,5.74-17.56,10.89-26.45a5,5,0,0,1,1.4-1.74,4.65,4.65,0,0,1,2.55-.57c5.86,0,11.42,2.38,16.79,4.73l3,1.32C474.27,283.23,474.21,284.42,475,284.75Z" transform="translate(-50.25 -36.11)"/><path class="cls-9" d="M419.46,289.78c-7.26,19.21-3.27,40.61-4.73,61.1-2.31,32.43-18.44,62.81-19.85,95.29a133.46,133.46,0,0,0,30.35.91c3-53.35,12.5-106.74,26.94-158.18.49-1.74.78-4-.79-4.95a4.12,4.12,0,0,0-1.88-.39,67.61,67.61,0,0,0-28.17,5.08c-.69.29-1.63.52-2.06-.08S419.72,289.08,419.46,289.78Z" transform="translate(-50.25 -36.11)"/><path class="cls-3" d="M415.83,325.12c2.28.3,4.54.68,6.78,1.16s5.51.85,5.68,3.83a64.27,64.27,0,0,1-1.1,13.34c-.64,4.17-1.5,8.31-2.36,12.45-.24,1.09-.38,2.46-1.21,3.29a5.25,5.25,0,0,1-2.89,1.08c-2.11.35-4.25.64-6.37,1-.28,0-.16.48.12.43a60.72,60.72,0,0,0,7.62-1.2,3.72,3.72,0,0,0,2.82-2.88,121.91,121.91,0,0,0,3-16.09c.33-2.45.59-4.92.72-7.39.09-1.77.56-4.27-.3-5.93s-3.33-1.8-4.94-2.16c-2.51-.57-5-1-7.58-1.33-.28,0-.28.41,0,.45Z" transform="translate(-50.25 -36.11)"/><path class="cls-3" d="M416.31,341.72a33.27,33.27,0,0,0,11.46-12.94c.12-.25-.26-.48-.39-.22a32.68,32.68,0,0,1-11.3,12.77c-.24.16,0,.55.23.39Z" transform="translate(-50.25 -36.11)"/><path class="cls-3" d="M423.91,334.49A139.18,139.18,0,0,0,419.46,360c0,.29.42.29.45,0a138.72,138.72,0,0,1,4.43-25.35.22.22,0,0,0-.43-.12Z" transform="translate(-50.25 -36.11)"/><path class="cls-3" d="M418.42,400.48a53.85,53.85,0,0,1,9.28-16.64c.18-.22-.14-.54-.32-.31A54.35,54.35,0,0,0,418,400.36c-.1.28.34.39.43.12Z" transform="translate(-50.25 -36.11)"/><path class="cls-3" d="M421.91,388.93l2.37-3.79c.15-.25-.24-.47-.39-.23l-2.37,3.79c-.15.25.23.47.39.23Z" transform="translate(-50.25 -36.11)"/><path class="cls-3" d="M421.82,307.49q-1.36,8.72-2.13,17.53c0,.29.43.28.45,0q.76-8.75,2.11-17.41c.05-.29-.38-.41-.43-.12Z" transform="translate(-50.25 -36.11)"/><path class="cls-3" d="M417.1,361.67a11.47,11.47,0,0,0-.24,3.74c.19,1.6,1.07,2.81,1.4,4.31s-1.47,3-2,4.22a38.23,38.23,0,0,0-1.42,4.83q-2.91,10.61-5.52,21.29-5.31,21.72-9.4,43.7c-.05.28.38.4.43.12q4.11-22,9.4-43.7,2.63-10.68,5.52-21.29a29.3,29.3,0,0,1,1.62-5.28c.5-1,1.63-1.86,1.85-3s-.57-2-.91-3a10.63,10.63,0,0,1-.31-5.86c.06-.28-.37-.4-.43-.12Z" transform="translate(-50.25 -36.11)"/><path class="cls-3" d="M442.88,327.19c1.91-10.43,4.1-21.6,12.13-29.21.21-.19-.11-.51-.32-.31-8.09,7.66-10.32,18.9-12.25,29.4-.05.29.38.41.44.12Z" transform="translate(-50.25 -36.11)"/><path class="cls-3" d="M451.6,304.67l2.73-2.07a.25.25,0,0,0,.08-.31.24.24,0,0,0-.31-.08l-2.73,2.08a.23.23,0,0,0-.08.3.22.22,0,0,0,.31.08Z" transform="translate(-50.25 -36.11)"/><path class="cls-3" d="M457.57,390.29a37.15,37.15,0,0,1,10.15-13.71c.22-.19-.1-.51-.32-.32a37.51,37.51,0,0,0-10.22,13.81c-.11.26.28.49.39.22Z" transform="translate(-50.25 -36.11)"/><path class="cls-3" d="M462.88,386.45a14.34,14.34,0,0,1,3.16-4.36c.21-.2-.11-.51-.32-.31a14.78,14.78,0,0,0-3.23,4.44c-.12.26.27.49.39.23Z" transform="translate(-50.25 -36.11)"/><path class="cls-12" d="M476.34,283.13c.32-12.72-1.13-18.21-1.82-30.92a19.07,19.07,0,0,0,3.17-4.3,10,10,0,0,0-.1-9.67c-.65-1.14-7.88-13.67-18.8-19.75-8.93-5-21.41-3.4-25.67-6.49-6.9,3-9.5,12-13.74,20.95,1.84.94.7.15.7.15,1.51,1.12,3.71,4.25,3.8,5.52.88,13-8.73,36.66-10.36,43.64,10.57,2.87,20.25,5.49,31.19,6.13S466.48,287.91,476.34,283.13Z" transform="translate(-50.25 -36.11)"/><path class="cls-3" d="M458,178.83l3.11.71a7.19,7.19,0,0,0,3.05.25c2.45-.54,3.59-3.43,3.66-5.93a11.17,11.17,0,0,0-1.39-6,7.53,7.53,0,0,0-4.85-3.6,11,11,0,0,0-6.37,1.16c-2.12-.72-4.72-1.86-6.85-2.57a14,14,0,0,0-5-1c-3.14.14-5.89,2.47-7.2,5.34-.33-6.91-5.76-13.17-12.31-15.4a16.65,16.65,0,0,0-18.45,5.82,15.65,15.65,0,0,0,1.14,19.13c1.11,1.18,2.46,2.25,3,3.78s-.24,3.68-1.87,3.75a8.47,8.47,0,0,1-1.71-.33c-2.87-.48-5.09,3.13-4.28,5.93s3.46,4.63,6.1,5.85c3.45,1.6,7.34,2.56,11.06,1.77,4.28-.92,7.81-4.09,10.13-7.8s3.62-8,4.89-12.16a24.29,24.29,0,0,0-1.09,7.06,7.67,7.67,0,0,0,2.85,6,5.88,5.88,0,0,1,1.42,1.14c.49.68.47,1.6.84,2.35a3.17,3.17,0,0,0,3.83,1.33c1.4-.48,5.28-.32,6-1.63s-1.76-4.12-1.17-5.47C448.33,184,453.49,180.24,458,178.83Z" transform="translate(-50.25 -36.11)"/><path class="cls-5" d="M453.64,209c-.31-4.77-.58-6.23-.73-10.83,3.17.47,7,.64,9.89-1.2,2-1.27,1.34-4.58,1.35-6.94a43.88,43.88,0,0,0-2.83-15.58,6.88,6.88,0,0,0-1.75-2.91,5.29,5.29,0,0,0-3.91-1,10,10,0,0,0-6.9,3.9,13.07,13.07,0,0,0-2.61,7.58,3.13,3.13,0,0,0-4.13-1.68A5.38,5.38,0,0,0,439.7,183a6.74,6.74,0,0,0-.7,2,4.46,4.46,0,0,0,7.07,4.27c-1.2,5.95-2.63,13.12-3.84,19.07L428,216.51s19.49,7.24,32.15,5c0,0-.71-5.27,1.89-7.52Z" transform="translate(-50.25 -36.11)"/><path class="cls-3" d="M444.11,182.75a3.09,3.09,0,0,0-1.23,5.1c.2.21.52-.11.32-.32a2.63,2.63,0,0,1,1-4.34c.27-.09.16-.53-.12-.44Z" transform="translate(-50.25 -36.11)"/><path class="cls-3" d="M442.61,185.41h.06c.05,0,0,0,0,0l.11,0,.12,0,.05,0h0l.2.11.05,0s.05,0,0,0l.09.09a.85.85,0,0,1,.16.17s0,0,0,0l0,.05.06.1.05.1v0s0,0,0,0a1,1,0,0,1,.06.25.23.23,0,0,0,.44-.12,1.73,1.73,0,0,0-1.59-1.43.22.22,0,0,0-.22.22.23.23,0,0,0,.22.23Z" transform="translate(-50.25 -36.11)"/><path class="cls-3" d="M449.28,210.46a3.46,3.46,0,0,0-1.87-1.19.23.23,0,1,0-.12.44,3,3,0,0,1,1.67,1.07.23.23,0,1,0,.32-.32Z" transform="translate(-50.25 -36.11)"/><path class="cls-3" d="M451.27,210.76a3.56,3.56,0,0,1,.92-1.62c.2-.2-.12-.52-.32-.32a4,4,0,0,0-1,1.82.23.23,0,0,0,.16.28.23.23,0,0,0,.27-.16Z" transform="translate(-50.25 -36.11)"/><path class="cls-3" d="M452,180.24A7.45,7.45,0,0,1,455,178a.37.37,0,0,0,.25-.45.36.36,0,0,0-.45-.26,8.25,8.25,0,0,0-3.38,2.45.37.37,0,0,0,.52.52Z" transform="translate(-50.25 -36.11)"/><path class="cls-3" d="M459.46,177.51a9.39,9.39,0,0,1,2.54.06.37.37,0,0,0,.2-.71,10.06,10.06,0,0,0-2.74-.08.38.38,0,0,0-.37.37.36.36,0,0,0,.37.36Z" transform="translate(-50.25 -36.11)"/><path class="cls-3" d="M447.43,192.55a10.91,10.91,0,0,0,.71,2.43,4.93,4.93,0,0,0,1.3,1.94,7,7,0,0,0,2.19,1,23.61,23.61,0,0,0,2.76.67c.28.05.4-.38.12-.43a22.41,22.41,0,0,1-2.45-.59,7.24,7.24,0,0,1-2.25-.91,4.23,4.23,0,0,1-1.25-1.83,10.4,10.4,0,0,1-.7-2.37c-.05-.29-.48-.17-.43.12Z" transform="translate(-50.25 -36.11)"/><ellipse class="cls-11" cx="454.1" cy="186.21" rx="1.86" ry="1.2" transform="translate(-53.79 -27.23) rotate(-1.12)"/><ellipse class="cls-11" cx="462.7" cy="185.49" rx="1.11" ry="1.2" transform="translate(-53.78 -27.06) rotate(-1.12)"/><path class="cls-3" d="M459.91,185.47a1.56,1.56,0,0,1,.94-.22.92.92,0,0,1,.4.15.81.81,0,0,1,.24.28.58.58,0,0,1,0,.63s0,0,0,0l0,0-.06.06s0,0,0,0l0,0-.08.05,0,0s0,0,0,0l-.09,0-.09,0h0s0,0,0,0a1.85,1.85,0,0,1-.87-.13.23.23,0,0,0-.28.16.23.23,0,0,0,.15.28,1.68,1.68,0,0,0,1.88-.29,1,1,0,0,0,.09-1.06,1.29,1.29,0,0,0-.83-.7,2,2,0,0,0-1.42.24c-.25.14,0,.53.23.39Z" transform="translate(-50.25 -36.11)"/><path class="cls-3" d="M457,187.89a3.11,3.11,0,0,0,.2,1.63,1.45,1.45,0,0,0,1,.82,2.33,2.33,0,0,0,1.42-.38,2.84,2.84,0,0,0,1-1c.14-.25-.25-.48-.39-.22a2.38,2.38,0,0,1-.78.83,2,2,0,0,1-1.12.36,1,1,0,0,1-.78-.65,3,3,0,0,1-.12-1.36c0-.29-.43-.28-.45,0Z" transform="translate(-50.25 -36.11)"/><path class="cls-3" d="M456.79,190.8a.81.81,0,0,0,.92.4.23.23,0,0,0,.16-.28.25.25,0,0,0-.28-.16l-.08,0h0l-.15,0,.06,0-.14-.07.05,0a.47.47,0,0,1-.1-.1l0,0-.06-.1a.19.19,0,0,0-.13-.1.22.22,0,0,0-.18,0,.25.25,0,0,0-.08.31Z" transform="translate(-50.25 -36.11)"/><ellipse class="cls-6" cx="454.94" cy="182.55" rx="1.49" ry="1.88" transform="translate(-53.72 -27.21) rotate(-1.12)"/><ellipse class="cls-3" cx="455.83" cy="182.54" rx="0.51" ry="0.64" transform="translate(-53.72 -27.19) rotate(-1.12)"/><ellipse class="cls-6" cx="411.18" cy="146.03" rx="1.3" ry="1.63"/><ellipse class="cls-3" cx="411.95" cy="146.04" rx="0.44" ry="0.55"/><path class="cls-10" d="M405.32,300.1c9,3.76,17.83,7.45,27.08,10.61,6.44-27.56,12.92-55.47,12.23-83.76-.21-9-1.15-18-.63-27-4.8,1.44-9.24,4.54-10.93,9.25-7.85,6.07-16.36,13.27-17,23.18-.3,4.41,1.08,8.75,1.26,13.17.21,4.69-.93,9.33-2.07,13.89C411.89,272.94,408.86,286.69,405.32,300.1Z" transform="translate(-50.25 -36.11)"/><path class="cls-10" d="M483.24,294.57l-4.38-35.87a16.11,16.11,0,0,1,.07-6.38c.74-2.6,2.74-4.7,3.45-7.3,1.08-4-1.05-8-3.2-11.55-5.26-8.57-12.5-15.54-17.37-24.34a23.76,23.76,0,0,0-8.56-8.88c-1.81,9.31,4.52,18,8.77,26.44,6.18,12.35,8.24,26.35,9.05,40.13s.46,27.66,2.2,41.36C477.21,304.72,480.75,299.18,483.24,294.57Z" transform="translate(-50.25 -36.11)"/><path class="cls-3" d="M426.25,207.89c5.1,13.88,6.3,28.71,1.93,42.93-1.46,4.78-3,9.55-4.75,14.21s-3.75,9.27-6.71,13.2c-2.18,2.89-5.36,5.61-9.07,3.73-2.08-1.06-3.91,2.07-1.83,3.12,9.5,4.81,15.85-6.87,19-14a152.62,152.62,0,0,0,5.9-16.23c2.15-6.88,3.75-13.72,3.85-21a75.11,75.11,0,0,0-4.83-27c-.79-2.17-4.29-1.23-3.49,1Z" transform="translate(-50.25 -36.11)"/><path class="cls-3" d="M463.05,211.33a119.17,119.17,0,0,1,13.69,18.74,80.71,80.71,0,0,1,6.61,13.09c1.42,3.75,2.62,7.84,2.28,11.89a9.41,9.41,0,0,1-6.35,8.24c-2.16.82-1.22,4.33,1,3.49,4-1.52,7.17-4.26,8.43-8.43s.51-8.72-.68-12.78c-2.89-9.8-8.63-18.83-14.59-27a110.66,110.66,0,0,0-7.79-9.76c-1.57-1.72-4.13.85-2.56,2.56Z" transform="translate(-50.25 -36.11)"/><path class="cls-3" d="M432.72,207.79c0,4.93,3.91,8.46,6.18,12.49,2.83,5,3.89,10.76,4.93,16.36.06.28.49.16.44-.12-1-5.16-1.95-10.41-4.29-15.15-2.19-4.45-6.81-8.32-6.82-13.58a.22.22,0,0,0-.44,0Z" transform="translate(-50.25 -36.11)"/><path class="cls-3" d="M443.5,203.2a12.3,12.3,0,0,0-2.3,2c-.51.57-1.2,1.27-.92,2.09a2.7,2.7,0,0,0,.6.93,4.24,4.24,0,0,1,.8,1.32,9.61,9.61,0,0,1,.43,2.92c0,.28.46.28.45,0a7.05,7.05,0,0,0-1.32-4.51c-.28-.34-.67-.75-.57-1.23a3.14,3.14,0,0,1,.85-1.2,11.49,11.49,0,0,1,2.21-1.9c.24-.15,0-.54-.23-.38Z" transform="translate(-50.25 -36.11)"/><path class="cls-3" d="M453,205.42a3.28,3.28,0,0,1,2.53,4c-.08.27.36.39.44.11a3.73,3.73,0,0,0-2.85-4.56c-.28-.05-.4.38-.12.43Z" transform="translate(-50.25 -36.11)"/><path class="cls-3" d="M461.81,209.5c2.55,7.17-.06,15.06,2.69,22.18.1.27.53.15.43-.12-2.75-7.12-.13-15-2.69-22.18-.09-.27-.53-.15-.43.12Z" transform="translate(-50.25 -36.11)"/><path class="cls-3" d="M468.54,236.61a219.4,219.4,0,0,1,5.78,37c0,.29.47.29.45,0a219.82,219.82,0,0,0-5.8-37.13.22.22,0,0,0-.43.12Z" transform="translate(-50.25 -36.11)"/><path class="cls-3" d="M473.85,255.1a26.74,26.74,0,0,0,.54,4.17c.06.28.49.16.43-.12a26.4,26.4,0,0,1-.52-4c0-.29-.47-.29-.45,0Z" transform="translate(-50.25 -36.11)"/><path class="cls-3" d="M441.54,239.32q-.51,6.36-1.16,12.7c0,.29.42.29.45,0q.65-6.35,1.16-12.7c0-.29-.42-.28-.45,0Z" transform="translate(-50.25 -36.11)"/><path class="cls-3" d="M448,253.15q10.37,1.8,20.57,4.47a.22.22,0,0,0,.12-.43q-10.2-2.67-20.58-4.47c-.28-.05-.4.38-.11.43Z" transform="translate(-50.25 -36.11)"/><path class="cls-3" d="M454.56,256.27a67.24,67.24,0,0,1,11.58,2.47.22.22,0,0,0,.12-.43,68.63,68.63,0,0,0-11.7-2.49c-.29,0-.28.41,0,.45Z" transform="translate(-50.25 -36.11)"/><rect class="cls-13" x="464.17" y="277.34" width="13.28" height="40.96" transform="translate(261.77 -272.28) rotate(41.12)"/><polygon class="cls-14" points="412.74 295.77 412.09 281.5 439.03 250.65 439.68 264.92 412.74 295.77"/><rect class="cls-14" x="489.05" y="299.06" width="13.28" height="40.96" transform="translate(608.67 850.15) rotate(-138.88)"/><polygon class="cls-13" points="412.74 295.77 426.96 294.49 453.9 263.64 439.68 264.92 412.74 295.77"/><path class="cls-3" d="M471.2,288.62a8.16,8.16,0,0,1,3.2-2c.25-.08.14-.49-.11-.4a8.55,8.55,0,0,0-3.38,2.09.21.21,0,0,0,.29.3Z" transform="translate(-50.25 -36.11)"/><path class="cls-3" d="M475.77,286.3a2.15,2.15,0,0,1,.27-.1,1.77,1.77,0,0,1,.31-.08h.55s0,0,0,0a.23.23,0,0,0,.26-.15.22.22,0,0,0-.15-.26,2.54,2.54,0,0,0-1.46.23.21.21,0,0,0-.07.29.21.21,0,0,0,.28.07Z" transform="translate(-50.25 -36.11)"/><path class="cls-3" d="M479.31,286.18l1.31.12a.2.2,0,0,0,.2-.21.22.22,0,0,0-.2-.21l-1.31-.12a.21.21,0,0,0,0,.42Z" transform="translate(-50.25 -36.11)"/><path class="cls-3" d="M482.36,287.13a3.48,3.48,0,0,1,1.16,1.22.2.2,0,0,0,.28.08.22.22,0,0,0,.08-.29,4,4,0,0,0-1.31-1.37.21.21,0,0,0-.21.36Z" transform="translate(-50.25 -36.11)"/><path class="cls-3" d="M477.89,299.35a2,2,0,0,0-1.74-1.21,5.35,5.35,0,0,0-3.17.13c-1,.44-1.56,1.41-2.29,2.15a26.66,26.66,0,0,1-3,2.47c-1.63,1.23-3.43,2.76-3.89,4.86a3.44,3.44,0,0,0,1.79,4c.25.1.35-.3.11-.4-1.72-.7-1.86-2.94-1.2-4.42a11.14,11.14,0,0,1,3.77-4c.71-.52,1.41-1,2.07-1.61s1.23-1.3,1.85-2a3.28,3.28,0,0,1,2.76-1c.8.06,2.3.12,2.58,1.06a.21.21,0,0,0,.4-.11Z" transform="translate(-50.25 -36.11)"/><path class="cls-3" d="M477.68,299.63c.32,1.5-.8,2.85-1.31,4.19a4.9,4.9,0,0,0-.23,3.39,16.79,16.79,0,0,1,1.35,3.77,8.07,8.07,0,0,1-.7,4.25c-.11.25.25.46.36.21a8.35,8.35,0,0,0-.17-7.39,4.48,4.48,0,0,1-.61-2.57,7.28,7.28,0,0,1,.77-2.39c.56-1.13,1.22-2.27.94-3.57-.05-.26-.45-.15-.4.11Z" transform="translate(-50.25 -36.11)"/><path class="cls-3" d="M465.73,311.84c.41-.26.79.17.8.57a3,3,0,0,1-.32,1.08,7.36,7.36,0,0,0-.52,1.65,7.12,7.12,0,0,0,.14,3.31,6.42,6.42,0,0,0,4,4.18c.26.09.37-.31.11-.4a6.06,6.06,0,0,1-3.95-6,7.17,7.17,0,0,1,.4-2.05,6.7,6.7,0,0,0,.56-1.67c0-.74-.7-1.49-1.42-1-.22.15,0,.51.21.36Z" transform="translate(-50.25 -36.11)"/><path class="cls-3" d="M479.83,302.76a3.84,3.84,0,0,1,.25,2.09.21.21,0,0,0,.15.26.2.2,0,0,0,.25-.14,4.17,4.17,0,0,0-.25-2.32.21.21,0,0,0-.25-.15.22.22,0,0,0-.15.26Z" transform="translate(-50.25 -36.11)"/><path class="cls-3" d="M480.27,307.28a1.41,1.41,0,0,0,0,1.25.21.21,0,0,0,.28.08.23.23,0,0,0,.08-.29l0-.06h0v0a.56.56,0,0,1,0-.12.5.5,0,0,1,0-.12c0,.05,0,0,0,0v-.2a.15.15,0,0,0,0-.07h0l0-.12a.25.25,0,0,0,0-.07s0-.08,0,0a.31.31,0,0,0,0-.16.22.22,0,0,0-.1-.13.2.2,0,0,0-.28.08Z" transform="translate(-50.25 -36.11)"/><path class="cls-3" d="M479.76,311.08a.21.21,0,0,0,0-.42.21.21,0,0,0,0,.42Z" transform="translate(-50.25 -36.11)"/><path class="cls-3" d="M473.93,319.87a4.85,4.85,0,0,0,4.52-1.19c.19-.19-.1-.48-.3-.3a4.41,4.41,0,0,1-4.11,1.09.21.21,0,0,0-.11.4Z" transform="translate(-50.25 -36.11)"/><path class="cls-3" d="M481.75,316.45l1.56-1.44a.21.21,0,0,0-.3-.3l-1.55,1.45a.21.21,0,0,0,0,.29.2.2,0,0,0,.29,0Z" transform="translate(-50.25 -36.11)"/><path class="cls-3" d="M485.88,312.58a1.74,1.74,0,0,1,.11-.18l.07-.09,0,0,0,0c.09-.11.19-.22.29-.32a3.94,3.94,0,0,1,.65-.51.2.2,0,0,0,.08-.28.22.22,0,0,0-.29-.07,4,4,0,0,0-1.31,1.3.2.2,0,0,0,.07.28.21.21,0,0,0,.29-.07Z" transform="translate(-50.25 -36.11)"/><path class="cls-3" d="M490.19,309.53a4.22,4.22,0,0,1,2-1,.21.21,0,0,0,.15-.25.22.22,0,0,0-.26-.15,4.7,4.7,0,0,0-2.15,1.07.21.21,0,1,0,.3.3Z" transform="translate(-50.25 -36.11)"/><path class="cls-3" d="M495.34,307.83a1,1,0,0,0,.53-.1,1,1,0,0,0,.42-.35.18.18,0,0,0,0-.16.19.19,0,0,0-.09-.12.18.18,0,0,0-.16,0,.24.24,0,0,0-.13.09h0v0l0,0-.08.07c.05,0,0,0,0,0l0,0-.1.05h-.06l-.1,0h-.16a.22.22,0,0,0-.14.06.23.23,0,0,0-.07.15.21.21,0,0,0,.07.15.22.22,0,0,0,.14.06Z" transform="translate(-50.25 -36.11)"/><path class="cls-3" d="M496.76,310.93a2.65,2.65,0,0,1-.11,2.22c-.13.23.23.44.35.21a3,3,0,0,0,.16-2.54.21.21,0,0,0-.25-.14.21.21,0,0,0-.15.25Z" transform="translate(-50.25 -36.11)"/><path class="cls-3" d="M495,317.53l-.77,1.64a.22.22,0,0,0,.07.29.22.22,0,0,0,.29-.08l.77-1.64a.2.2,0,0,0-.08-.28.21.21,0,0,0-.28.07Z" transform="translate(-50.25 -36.11)"/><path class="cls-3" d="M492.68,322a.78.78,0,0,1-.05.14.14.14,0,0,1,0,.06s0,0,0,0v0l-.14.26a1,1,0,0,0-.08.11l0,0s0,0,0,0l-.05.06-.2.21a.21.21,0,0,0,.29.29,2.37,2.37,0,0,0,.68-1.08.21.21,0,0,0-.4-.11Z" transform="translate(-50.25 -36.11)"/><path class="cls-3" d="M490.36,327.18l-.21,2.12a.21.21,0,1,0,.41,0l.21-2.12c0-.11-.1-.21-.2-.21a.21.21,0,0,0-.21.21Z" transform="translate(-50.25 -36.11)"/><path class="cls-3" d="M490.2,332l.57,1.78a.21.21,0,0,0,.4-.11l-.57-1.78c-.08-.25-.48-.15-.4.11Z" transform="translate(-50.25 -36.11)"/><path class="cls-3" d="M483.8,324.41c1.19.11,1.1,1.59.79,2.41a24.84,24.84,0,0,0-1.11,2.53c-.24.9,0,1.82-.19,2.72a3.94,3.94,0,0,1-1.33,2.14c-.2.17.09.46.3.29a4.38,4.38,0,0,0,1.45-2.39,6.86,6.86,0,0,0,.07-1.57,4.22,4.22,0,0,1,.48-2.06,5.66,5.66,0,0,0,1-3A1.63,1.63,0,0,0,483.8,324c-.27,0-.27.39,0,.42Z" transform="translate(-50.25 -36.11)"/><path class="cls-3" d="M508.1,303.54c-1.83.67-4,1.61-5.21,3.19a4.17,4.17,0,0,0-.77,2.45,5.11,5.11,0,0,1-1.22,2.95c-1,1.39-2.09,2.85-1.3,4.65s2.61,2.43,4.34,2.84c.26.06.37-.34.11-.4-1.78-.42-3.85-1.21-4.27-3.22-.37-1.78,1.13-3,2-4.38a4.3,4.3,0,0,0,.7-1.75,5.47,5.47,0,0,1,.73-2.86c1.15-1.51,3.26-2.44,5-3.07.25-.09.14-.49-.11-.4Z" transform="translate(-50.25 -36.11)"/><path class="cls-3" d="M501.42,322.23a3.63,3.63,0,0,0-3,1,3.66,3.66,0,0,0-1.09,2.94c0,.26.45.27.42,0a3.26,3.26,0,0,1,3.56-3.54c.26,0,.37-.36.11-.4Z" transform="translate(-50.25 -36.11)"/><path class="cls-3" d="M464,295.93c1.37,1.49-.46,3.52-1.46,4.6a6.19,6.19,0,0,0-1.9,3.43c-.22,1.64-.1,3.24-.71,4.82a10.13,10.13,0,0,1-3,4.12c-.2.17.09.46.3.29a10.44,10.44,0,0,0,2.91-3.92,9.45,9.45,0,0,0,.69-2.55c.12-1,0-2,.23-3,.38-1.91,2-2.89,3-4.43.7-1.07,1.11-2.6.15-3.64-.18-.2-.47.09-.29.29Z" transform="translate(-50.25 -36.11)"/><path class="cls-5" d="M456.3,278.92l4.2,4.28c1.36,1.38,3.16,2.89,5,2.3a11.17,11.17,0,0,0,2.31-1.48,6.94,6.94,0,0,1,6.7.05,18.81,18.81,0,0,1,5.29,4.54c.73.81,1.46,2.07.72,2.87a1.74,1.74,0,0,1-2.13,0c-.65-.42-1.14-1.05-1.78-1.47-1.39-.9-2.87.06-4.5.33a16.38,16.38,0,0,1,6.51,5.87c.47.75.87,1.76.33,2.46a1.71,1.71,0,0,1-1.34.57c-3.28.08-4.89-4.73-8.15-5a20.17,20.17,0,0,1,7.14,6.93c.74,1.2,1.27,3,.19,3.87a2.23,2.23,0,0,1-2.53,0,7.66,7.66,0,0,1-1.91-1.9,24.73,24.73,0,0,0-7-5.8,14.29,14.29,0,0,1,7.06,6.11,3.73,3.73,0,0,1,.64,2.1,1.56,1.56,0,0,1-1.35,1.51,2.08,2.08,0,0,1-1.19-.46c-1.87-1.28-3.19-3.29-5.15-4.43-2.13-1.23-4.83-1.33-6.75-2.85a11,11,0,0,1-2.47-3.17l-3.81-6.36a19.58,19.58,0,0,1,3.25-10.42c.12-.18.28-.38.51-.38S456.52,278.88,456.3,278.92Z" transform="translate(-50.25 -36.11)"/><path class="cls-10" d="M404.12,247.25c-2.12,4.62-3.68,10-1.79,14.69a19.92,19.92,0,0,0,4.41,6.11A106.65,106.65,0,0,0,438.88,291c2.09,1,4.42,1.89,6.66,1.32,2.57-.66,4.25-3.05,5.7-5.28l3.89-6a6.22,6.22,0,0,0,1.31-3.23c0-1.5-1-2.76-2.06-3.85a85.31,85.31,0,0,0-17.95-14.62,8.38,8.38,0,0,1-3.08-2.6c-1.23-2-1-5.45-3.3-6-.84-.2-1.86.09-2.48-.5a2.18,2.18,0,0,1-.48-1.5c-.17-3.81.75-7.58.91-11.39a28.93,28.93,0,0,0-3.17-14.25c-.59-1.15-1.25-3-2.77-1.95-1.29.87-2.28,2.57-3.25,3.77s-2.13,2.66-3.17,4c-2.07,2.69-4.08,5.43-5.93,8.28A77.11,77.11,0,0,0,404.12,247.25Z" transform="translate(-50.25 -36.11)"/><path class="cls-3" d="M448.79,290.29l4.15,2.71s9-7.14,8.89-10.57l-5.39-4.6Z" transform="translate(-50.25 -36.11)"/><path class="cls-3" d="M450.45,286.35a10.35,10.35,0,0,1-6.95-2.55c-.73-.69-1.67-2.08-1-3.1.45-.65,1.31-.26,1.83.08a4.47,4.47,0,0,1,1.29,1.31c.16.24.55,0,.39-.23a4.25,4.25,0,0,0-2.53-1.93c-1-.18-1.67.65-1.65,1.62.05,2.27,2.59,3.74,4.44,4.47a11.48,11.48,0,0,0,4.14.78.23.23,0,0,0,0-.45Z" transform="translate(-50.25 -36.11)"/><path class="cls-3" d="M452.3,283a8.45,8.45,0,0,0-1.58-3.57c-.17-.23-.56,0-.38.23a8.18,8.18,0,0,1,1.53,3.46c.05.28.49.16.43-.12Z" transform="translate(-50.25 -36.11)"/><path class="cls-3" d="M453.79,280.4a14.77,14.77,0,0,0-3.24-5.61,4.26,4.26,0,0,0-2.48-1.42,2.37,2.37,0,0,0-2.28.88,1.84,1.84,0,0,0,.22,2.37c.22.19.54-.12.32-.31a1.44,1.44,0,0,1,.46-2.33,2.84,2.84,0,0,1,3,.72,11,11,0,0,1,2.11,2.65,14.37,14.37,0,0,1,1.44,3.17c.09.27.53.15.44-.12Z" transform="translate(-50.25 -36.11)"/><path class="cls-3" d="M446.85,267l-14.62-14.58c-.83-.83-1.71-2-2.85-2.43a6.39,6.39,0,0,0-3.16.08c-3.31.52-7.82,1.17-9.58-2.53-.12-.26-.51,0-.39.22a6,6,0,0,0,5.09,3.18,18.49,18.49,0,0,0,4.45-.35,7.82,7.82,0,0,1,3.19-.16,5.81,5.81,0,0,1,2.52,1.89l15,15a.22.22,0,0,0,.32-.31Z" transform="translate(-50.25 -36.11)"/><path class="cls-3" d="M426.23,249.4a32,32,0,0,0-4.17-4.91c-.21-.2-.53.11-.32.32a30.47,30.47,0,0,1,4.1,4.82c.17.23.55,0,.39-.23Z" transform="translate(-50.25 -36.11)"/><path class="cls-3" d="M410.82,272.81A114.53,114.53,0,0,0,431,287.37c1.92,1,3.88,2,5.83,3a25.76,25.76,0,0,0,5,2.18c3.49.87,5.9-1,8.29-3.32.21-.2-.11-.52-.32-.32-1.26,1.23-2.63,2.66-4.36,3.19-2.31.72-4.62-.25-6.67-1.25-3.35-1.62-6.68-3.3-9.89-5.17a118.07,118.07,0,0,1-17.78-13.18c-.22-.19-.54.12-.32.31Z" transform="translate(-50.25 -36.11)"/><path class="cls-3" d="M479.27,288.18a2.21,2.21,0,0,0,.91,2.86c.25.14.48-.25.22-.39a1.76,1.76,0,0,1-.74-2.24c.13-.26-.26-.49-.39-.23Z" transform="translate(-50.25 -36.11)"/><path class="cls-3" d="M478.05,295.56a2.31,2.31,0,0,0,.21,3.16c.22.19.54-.12.32-.31a1.85,1.85,0,0,1-.21-2.53c.18-.22-.13-.54-.32-.32Z" transform="translate(-50.25 -36.11)"/><path class="cls-3" d="M476.3,301.7a2.23,2.23,0,0,0,.07,3.2c.22.19.54-.13.32-.32a1.78,1.78,0,0,1-.07-2.56c.21-.2-.11-.52-.32-.32Z" transform="translate(-50.25 -36.11)"/><path class="cls-3" d="M472.4,303.69a1.92,1.92,0,0,0-.42,2.87c.2.21.51-.11.32-.32a1.45,1.45,0,0,1,.33-2.16c.25-.14,0-.53-.23-.39Z" transform="translate(-50.25 -36.11)"/><path class="cls-3" d="M472.85,303.41,471.32,301a13.16,13.16,0,0,0-1.51-2.12,9.26,9.26,0,0,0-4.07-2.12c-.27-.09-.39.35-.12.43a8.55,8.55,0,0,1,4,2.1,14.72,14.72,0,0,1,1.43,2.05l1.46,2.27c.15.24.54,0,.38-.23Z" transform="translate(-50.25 -36.11)"/><path class="cls-3" d="M472.71,296.48a8.07,8.07,0,0,0-4.56-3.2.22.22,0,0,0-.12.43,7.57,7.57,0,0,1,4.29,3c.16.24.55,0,.39-.22Z" transform="translate(-50.25 -36.11)"/><path class="cls-3" d="M475.59,292.73a8.83,8.83,0,0,0-6.14-3.53c-.28,0-.28.41,0,.45a8.37,8.37,0,0,1,5.76,3.31c.17.23.55,0,.38-.23Z" transform="translate(-50.25 -36.11)"/><path class="cls-3" d="M472.75,293.61l.52-.69a.25.25,0,0,0,0-.17.24.24,0,0,0-.11-.13.2.2,0,0,0-.17,0,.24.24,0,0,0-.13.11l-.52.68a.25.25,0,0,0,0,.17.3.3,0,0,0,.1.14.23.23,0,0,0,.18,0,.26.26,0,0,0,.13-.1Z" transform="translate(-50.25 -36.11)"/><path class="cls-3" d="M472.08,292.93l.35-.51a.25.25,0,0,0,0-.17.22.22,0,0,0-.28-.16.26.26,0,0,0-.13.1l-.35.51a.22.22,0,0,0,0,.18.21.21,0,0,0,.1.13.2.2,0,0,0,.17,0,.28.28,0,0,0,.14-.1Z" transform="translate(-50.25 -36.11)"/><path class="cls-3" d="M474.67,287.55l.17-.68a.23.23,0,0,0-.16-.28.23.23,0,0,0-.27.16l-.17.68a.23.23,0,0,0,.15.28.23.23,0,0,0,.28-.16Z" transform="translate(-50.25 -36.11)"/><path class="cls-3" d="M474.13,286.52l.17-.52a.21.21,0,0,0,0-.17.21.21,0,0,0-.13-.1.23.23,0,0,0-.28.16l-.17.51a.21.21,0,0,0,0,.17.26.26,0,0,0,.14.11.23.23,0,0,0,.27-.16Z" transform="translate(-50.25 -36.11)"/><path class="cls-3" d="M469.84,297.89l.68-1.2a.25.25,0,0,0-.08-.31.23.23,0,0,0-.31.08l-.68,1.2a.23.23,0,0,0,.39.23Z" transform="translate(-50.25 -36.11)"/><path class="cls-3" d="M469.69,296.57a.38.38,0,0,1,0-.15v.06a.76.76,0,0,1,.06-.2l0,.06a1,1,0,0,1,.1-.17l0,.05a.5.5,0,0,1,.12-.13l0,0,.06,0a.24.24,0,0,0,.08-.31.24.24,0,0,0-.31-.08,1,1,0,0,0-.45.88.25.25,0,0,0,.06.16.2.2,0,0,0,.16.06.22.22,0,0,0,.23-.22Z" transform="translate(-50.25 -36.11)"/><path class="cls-3" d="M467.81,301.09a.33.33,0,0,1,0-.14l0,.05.09-.15,0,0a.34.34,0,0,1,.12-.12l-.05,0,.15-.08-.06,0a.23.23,0,0,1,.11,0,.23.23,0,0,0,.15-.28.23.23,0,0,0-.27-.16.91.91,0,0,0-.66.69.2.2,0,0,0,0,.17.19.19,0,0,0,.13.1.17.17,0,0,0,.17,0,.23.23,0,0,0,.11-.13Z" transform="translate(-50.25 -36.11)"/><path class="cls-3" d="M467.25,300.52l.65-.71a.23.23,0,1,0-.32-.32l-.65.72a.22.22,0,0,0,0,.31.22.22,0,0,0,.32,0Z" transform="translate(-50.25 -36.11)"/><line class="cls-15" x1="1" y1="429.23" x2="644.53" y2="429.23"/></g></svg>